<svg width="558" height="538" viewBox="0 0 558 538" fill="none" xmlns="http://www.w3.org/2000/svg">
<g clip-path="url(#clip0)">
<path d="M56.7937 525.686H43.8303L32.1011 445.795L23.4583 399.543L54.3244 392.935L54.633 434.382L56.7937 525.686Z" fill="#9F616A"/>
<path d="M98.4633 525.686H84.2649L72.5357 445.795L63.8929 399.543L94.7598 392.935L95.0684 434.382L98.4633 525.686Z" fill="#9F616A"/>
<path d="M101.859 437.686L64.8194 444.293L58.6458 433.481L57.4116 443.693L22.2241 444.894L20.9891 361.399L91.3641 357.795L101.859 437.686Z" fill="#2F2E41"/>
<path d="M113.597 538H85.2174C84.0643 538 82.9584 537.554 82.1431 536.761C81.3277 535.968 80.8696 534.891 80.8696 533.769V525.699C80.8696 525.238 80.963 524.781 81.1444 524.355C81.3259 523.929 81.5918 523.541 81.9271 523.215C82.2623 522.889 82.6603 522.63 83.0984 522.454C83.5364 522.277 84.0058 522.186 84.4799 522.186C87.9354 525.477 91.9169 525.217 96.3091 522.186L96.5231 521.006C96.6265 520.436 96.8807 519.901 97.2607 519.455C97.6407 519.01 98.1333 518.668 98.6902 518.463C99.2471 518.259 99.8491 518.199 100.437 518.29C101.025 518.38 101.578 518.618 102.043 518.98L109.717 524.954L111.818 524.424C112.866 524.159 113.962 524.132 115.023 524.344C116.083 524.555 117.08 525.001 117.936 525.645C118.792 526.29 119.485 527.117 119.962 528.063C120.439 529.008 120.687 530.048 120.687 531.101C120.687 532.007 120.504 532.904 120.147 533.741C119.791 534.578 119.269 535.339 118.611 535.979C117.952 536.62 117.171 537.128 116.31 537.475C115.45 537.822 114.528 538 113.597 538Z" fill="#2F2E41"/>
<path d="M72.2366 538H43.8566C42.7035 538 41.5976 537.554 40.7823 536.761C39.9669 535.968 39.5089 534.891 39.5089 533.769V525.699C39.5089 525.238 39.6022 524.781 39.7837 524.355C39.9651 523.929 40.231 523.541 40.5663 523.215C40.9015 522.889 41.2995 522.63 41.7376 522.454C42.1756 522.277 42.6451 522.186 43.1192 522.186C46.5746 525.477 50.5561 525.217 54.9483 522.186L55.1623 521.006C55.2657 520.436 55.5199 519.901 55.8999 519.455C56.2799 519.01 56.7725 518.668 57.3294 518.463C57.8863 518.259 58.4883 518.199 59.0761 518.29C59.664 518.38 60.2175 518.618 60.6823 518.98L68.3562 524.954L70.4573 524.424C71.5053 524.159 72.6016 524.132 73.6621 524.344C74.7226 524.555 75.7192 525.001 76.5754 525.645C77.4316 526.29 78.1247 527.117 78.6016 528.063C79.0784 529.008 79.3264 530.048 79.3264 531.101C79.3264 532.007 79.143 532.904 78.7867 533.741C78.4304 534.578 77.9082 535.339 77.2498 535.979C76.5915 536.62 75.8099 537.128 74.9497 537.475C74.0895 537.822 73.1676 538 72.2366 538Z" fill="#2F2E41"/>
<path d="M76.5483 203.419C89.1631 203.419 99.3894 193.469 99.3894 181.194C99.3894 168.919 89.1631 158.969 76.5483 158.969C63.9336 158.969 53.7073 168.919 53.7073 181.194C53.7073 193.469 63.9336 203.419 76.5483 203.419Z" fill="#9F616A"/>
<path d="M62.9672 217.836L41.9781 212.429L56.7937 181.194L76.5485 195.01L62.9672 217.836Z" fill="#9F616A"/>
<path d="M93.8335 365.003C75.275 355.385 62.4234 361.29 45.7568 372.928C32.7765 381.993 14.4565 371.937 0 369.208L11.1937 245.135C12.0841 235.265 15.9491 225.87 22.3039 218.129C28.6588 210.387 37.2209 204.643 46.9167 201.617L67.2884 210.628C76.6839 223.645 79.6798 250.921 84.5735 282.71C88.7952 310.132 90.307 334.682 93.8335 365.003Z" fill="#F9A826"/>
<path d="M71.6097 348.785L74.4779 363.786C74.7453 365.184 74.7186 366.621 74.3995 368.009C74.0803 369.397 73.4753 370.708 72.621 371.862C71.7668 373.017 70.6809 373.99 69.4291 374.725C68.1772 375.46 66.7853 375.94 65.3375 376.136C63.6132 376.37 61.8564 376.196 60.2162 375.628C58.576 375.06 57.1008 374.116 55.916 372.875C54.7312 371.633 53.8718 370.132 53.4108 368.499C52.9497 366.865 52.9006 365.147 53.2677 363.492L56.794 347.583L39.5089 282.109L41.9782 258.682L66.6712 258.082C69.0208 264.975 68.1801 272.206 64.8192 279.706L71.6097 348.785Z" fill="#9F616A"/>
<path d="M63.3454 183.945C65.1561 183.839 66.924 184.435 68.7221 184.667C75.1551 185.498 81.8473 180.956 83.2677 174.795C83.3816 173.974 83.6329 173.177 84.0117 172.436C85.0017 170.863 87.2566 170.563 89.1153 170.925C90.9741 171.286 92.7361 172.133 94.629 172.23C97.5518 172.379 100.358 170.628 101.915 168.217C103.387 165.73 104.013 162.853 103.704 159.998L102.303 161.429C101.733 160.257 101.514 158.953 101.668 157.666C100.926 157.473 100.145 157.47 99.4005 157.655C98.6561 157.84 97.9731 158.209 97.4168 158.724C96.1813 158.852 97.1138 156.494 96.1959 155.68C95.7495 155.413 95.2174 155.316 94.702 155.408C92.0737 155.432 89.9475 153.476 87.8763 151.901C84.2876 149.179 80.0911 147.316 75.6258 146.464C72.6579 145.901 69.5019 145.81 66.6872 146.886C64.4151 147.878 62.3644 149.294 60.6508 151.052C56.2442 155.175 52.342 160.02 50.5088 165.694C49.0184 170.343 48.9762 175.316 50.3874 179.988C51.1261 182.414 53.3524 190.722 56.6116 190.915C60.7068 191.159 58.2481 184.24 63.3454 183.945Z" fill="#2F2E41"/>
<path d="M73.4617 269.495C61.2414 260.673 48.507 258.945 35.1876 265.29L40.4768 230.978C41.0661 227.156 43.0456 223.667 46.0554 221.144C49.0652 218.622 52.9054 217.235 56.8775 217.235C61.2759 217.235 65.4942 218.935 68.6043 221.962C71.7144 224.988 73.4617 229.092 73.4617 233.372L73.4617 269.495Z" fill="#F9A826"/>
<path d="M533.383 183.237L530.662 182.35L555.631 109.821C557.529 104.308 558.293 98.4856 557.878 92.686C557.463 86.8863 555.879 81.2229 553.215 76.0191C550.551 70.8152 546.859 66.173 542.351 62.3573C537.844 58.5416 532.608 55.6272 526.942 53.7805L526.942 53.7805L369.022 2.30514C363.357 0.458463 357.373 -0.284341 351.413 0.119137C345.452 0.522615 339.632 2.06448 334.284 4.65668C328.936 7.24889 324.165 10.8407 320.244 15.227C316.322 19.6133 313.327 24.7082 311.429 30.2208L311.429 30.2209L174.444 428.122C170.611 439.255 171.48 451.414 176.861 461.923C182.241 472.433 191.691 480.432 203.133 484.162H203.133L361.053 535.637C372.495 539.367 384.991 538.521 395.791 533.286C406.592 528.05 414.813 518.855 418.646 507.722L418.646 507.721L512.888 233.977L515.609 234.864L533.383 183.237Z" fill="#3F3D56"/>
<path d="M524.923 65.2688L504.309 58.5495C504.479 61.12 503.996 63.6916 502.903 66.0377C501.811 68.3838 500.142 70.4325 498.044 72.0032C495.946 73.574 493.483 74.6186 490.873 75.0451C488.262 75.4715 485.584 75.2668 483.074 74.4488L392.603 44.9592C390.093 44.1408 387.829 42.7344 386.009 40.8638C384.189 38.9933 382.87 36.7159 382.168 34.2324C381.466 31.7489 381.402 29.1355 381.982 26.6224C382.563 24.1093 383.769 21.7737 385.496 19.8212L366.242 13.5454C357.698 10.7602 348.366 11.3919 340.3 15.3015C332.235 19.2111 326.095 26.0784 323.233 34.3926L186.448 431.71C183.586 440.024 184.235 449.104 188.253 456.952C192.271 464.801 199.329 470.775 207.873 473.56H207.873L366.554 525.283C370.785 526.662 375.253 527.217 379.704 526.916C384.156 526.614 388.502 525.463 392.496 523.527C396.49 521.591 400.053 518.909 402.981 515.633C405.91 512.358 408.146 508.553 409.564 504.436L546.348 107.119C547.765 103.002 548.335 98.654 548.026 94.3229C547.716 89.9917 546.533 85.7623 544.543 81.8762C542.554 77.99 539.797 74.5233 536.431 71.6737C533.064 68.8242 529.154 66.6478 524.923 65.2688Z" fill="white"/>
<path d="M485.24 198.564L315.896 143.366C315.065 143.094 314.379 142.512 313.988 141.748C313.597 140.985 313.533 140.101 313.811 139.292L327.883 98.4175C328.162 97.6089 328.76 96.9411 329.545 96.5607C330.33 96.1802 331.238 96.1183 332.069 96.3883L501.412 151.587C502.244 151.859 502.93 152.441 503.321 153.204C503.712 153.968 503.775 154.851 503.498 155.661L489.426 196.535C489.147 197.344 488.549 198.012 487.764 198.392C486.979 198.772 486.071 198.834 485.24 198.564ZM331.649 97.6089C331.15 97.4468 330.605 97.484 330.134 97.7122C329.663 97.9405 329.305 98.3412 329.137 98.8264L315.065 139.701C314.899 140.186 314.937 140.716 315.172 141.175C315.406 141.633 315.818 141.982 316.317 142.145L485.66 197.344C486.159 197.506 486.704 197.469 487.174 197.24C487.645 197.012 488.004 196.611 488.172 196.126L502.243 155.252C502.41 154.766 502.372 154.236 502.137 153.778C501.903 153.32 501.491 152.971 500.992 152.808L331.649 97.6089Z" fill="#3F3D56"/>
<path d="M429.562 360.291L260.219 305.092C259.388 304.82 258.702 304.238 258.311 303.475C257.92 302.711 257.856 301.827 258.133 301.018L284.181 225.357C284.461 224.549 285.058 223.881 285.843 223.5C286.628 223.12 287.536 223.058 288.368 223.328L457.711 278.527C458.542 278.799 459.228 279.381 459.619 280.144C460.01 280.908 460.074 281.791 459.796 282.601L433.749 358.261C433.469 359.07 432.871 359.738 432.087 360.118C431.302 360.499 430.394 360.561 429.562 360.291ZM287.948 224.549C287.448 224.387 286.904 224.424 286.433 224.652C285.962 224.88 285.603 225.281 285.436 225.766L259.388 301.427C259.221 301.913 259.26 302.443 259.494 302.901C259.729 303.359 260.14 303.708 260.639 303.871L429.982 359.07C430.481 359.232 431.026 359.195 431.497 358.967C431.968 358.738 432.327 358.338 432.494 357.852L458.542 282.192C458.708 281.706 458.67 281.176 458.436 280.718C458.201 280.26 457.789 279.911 457.291 279.748L287.948 224.549Z" fill="#3F3D56"/>
<path d="M462.134 261.625L386.871 237.093C386.04 236.821 385.353 236.239 384.962 235.475C384.571 234.712 384.508 233.828 384.785 233.019L398.857 192.144C399.136 191.336 399.734 190.668 400.519 190.288C401.304 189.907 402.212 189.845 403.043 190.115L478.307 214.648C479.138 214.92 479.825 215.502 480.216 216.265C480.607 217.029 480.67 217.912 480.393 218.722L466.321 259.596C466.041 260.405 465.444 261.073 464.659 261.453C463.874 261.833 462.966 261.895 462.134 261.625ZM402.623 191.336C402.124 191.174 401.579 191.211 401.109 191.439C400.638 191.667 400.279 192.068 400.111 192.553L386.04 233.428C385.873 233.913 385.911 234.443 386.146 234.902C386.38 235.36 386.792 235.709 387.291 235.872L462.555 260.405C463.054 260.567 463.598 260.53 464.069 260.301C464.54 260.073 464.899 259.672 465.067 259.187L479.138 218.313C479.305 217.827 479.267 217.297 479.032 216.839C478.798 216.381 478.386 216.032 477.887 215.869L402.623 191.336Z" fill="#E6E6E6"/>
<path d="M301.446 428.491L226.182 403.958C225.351 403.686 224.665 403.105 224.274 402.341C223.883 401.577 223.819 400.694 224.097 399.885L250.355 323.614C250.634 322.805 251.232 322.137 252.017 321.757C252.801 321.376 253.709 321.314 254.541 321.584L329.805 346.117C330.636 346.389 331.322 346.971 331.713 347.735C332.104 348.498 332.168 349.382 331.89 350.191L305.632 426.462C305.353 427.271 304.755 427.938 303.97 428.319C303.186 428.699 302.278 428.761 301.446 428.491ZM254.121 322.805C253.622 322.643 253.077 322.68 252.606 322.908C252.135 323.137 251.777 323.537 251.609 324.023L225.351 400.294C225.185 400.779 225.223 401.309 225.457 401.768C225.692 402.226 226.104 402.575 226.602 402.738L301.866 427.271C302.365 427.433 302.91 427.396 303.381 427.167C303.852 426.939 304.21 426.538 304.378 426.053L330.636 349.782C330.802 349.297 330.764 348.766 330.53 348.308C330.295 347.85 329.883 347.501 329.385 347.338L254.121 322.805Z" fill="#E6E6E6"/>
<path d="M394.271 458.748L319.007 434.215C318.176 433.944 317.49 433.362 317.099 432.598C316.708 431.835 316.644 430.951 316.922 430.142L343.179 353.871C343.459 353.062 344.057 352.394 344.842 352.014C345.626 351.633 346.534 351.572 347.366 351.842L422.63 376.374C423.461 376.646 424.147 377.228 424.538 377.992C424.929 378.755 424.993 379.639 424.715 380.448L398.457 456.719C398.178 457.528 397.58 458.196 396.795 458.576C396.01 458.956 395.103 459.018 394.271 458.748ZM346.946 353.062C346.447 352.9 345.902 352.937 345.431 353.165C344.96 353.394 344.602 353.794 344.434 354.28L318.176 430.551C318.009 431.036 318.048 431.566 318.282 432.025C318.517 432.483 318.929 432.832 319.427 432.995L394.691 457.528C395.19 457.69 395.735 457.653 396.206 457.424C396.677 457.196 397.035 456.795 397.203 456.31L423.461 380.039C423.627 379.554 423.589 379.023 423.355 378.565C423.12 378.107 422.708 377.758 422.21 377.595L346.946 353.062Z" fill="#E6E6E6"/>
<path d="M304.199 271.407C311.639 271.407 317.671 265.538 317.671 258.299C317.671 251.059 311.639 245.19 304.199 245.19C296.758 245.19 290.727 251.059 290.727 258.299C290.727 265.538 296.758 271.407 304.199 271.407Z" fill="#F9A826"/>
<path d="M336.554 259.629C336.274 259.536 335.978 259.497 335.682 259.516C335.387 259.535 335.099 259.611 334.833 259.738C334.568 259.866 334.332 260.043 334.137 260.26C333.943 260.477 333.794 260.729 333.7 261.002C333.606 261.275 333.568 261.564 333.589 261.851C333.61 262.138 333.689 262.419 333.822 262.676C333.955 262.933 334.138 263.163 334.362 263.351C334.586 263.539 334.846 263.682 335.128 263.772L435.497 296.488C435.777 296.581 436.073 296.619 436.369 296.601C436.664 296.582 436.953 296.506 437.218 296.379C437.483 296.251 437.72 296.074 437.914 295.857C438.109 295.64 438.257 295.387 438.351 295.114C438.445 294.841 438.483 294.553 438.462 294.266C438.441 293.978 438.362 293.698 438.229 293.441C438.097 293.183 437.913 292.954 437.689 292.766C437.465 292.578 437.205 292.435 436.924 292.345L336.554 259.629Z" fill="#E6E6E6"/>
<path d="M332.275 272.058C331.995 271.966 331.698 271.927 331.403 271.946C331.108 271.965 330.819 272.04 330.554 272.168C330.289 272.296 330.052 272.473 329.858 272.69C329.663 272.907 329.515 273.159 329.421 273.432C329.327 273.705 329.289 273.994 329.31 274.281C329.331 274.568 329.41 274.849 329.543 275.106C329.675 275.363 329.859 275.593 330.083 275.781C330.307 275.969 330.567 276.112 330.848 276.202L374.038 290.28C374.601 290.46 375.215 290.416 375.746 290.157C376.276 289.898 376.68 289.446 376.868 288.898C377.057 288.351 377.015 287.753 376.752 287.235C376.489 286.718 376.026 286.323 375.464 286.136L332.275 272.058Z" fill="#E6E6E6"/>
<path d="M286.133 279.12C284.513 278.592 282.875 279.092 282.482 280.234C282.089 281.376 283.087 282.735 284.706 283.263L423.185 328.402C424.805 328.93 426.443 328.43 426.836 327.288C427.229 326.145 426.231 324.786 424.612 324.258L286.133 279.12Z" fill="#E6E6E6"/>
<path d="M281.853 291.55C280.234 291.022 278.596 291.522 278.203 292.664C277.809 293.806 278.807 295.165 280.427 295.693L418.906 340.832C420.526 341.36 422.164 340.86 422.557 339.717C422.95 338.575 421.952 337.216 420.333 336.688L281.853 291.55Z" fill="#E6E6E6"/>
<path d="M350.835 139.994C358.276 139.994 364.307 134.125 364.307 126.885C364.307 119.646 358.276 113.776 350.835 113.776C343.395 113.776 337.363 119.646 337.363 126.885C337.363 134.125 343.395 139.994 350.835 139.994Z" fill="#F9A826"/>
<path d="M383.191 128.215C382.911 128.124 382.616 128.087 382.321 128.107C382.027 128.127 381.74 128.203 381.476 128.331C381.211 128.458 380.976 128.636 380.782 128.852C380.589 129.069 380.441 129.32 380.347 129.593C380.253 129.865 380.216 130.152 380.236 130.439C380.257 130.725 380.335 131.004 380.467 131.261C380.598 131.518 380.781 131.747 381.003 131.936C381.226 132.124 381.485 132.268 381.764 132.359L482.134 165.075C482.698 165.255 483.312 165.211 483.842 164.953C484.373 164.694 484.776 164.241 484.965 163.694C485.153 163.146 485.111 162.548 484.848 162.031C484.585 161.513 484.122 161.118 483.56 160.932L383.191 128.215Z" fill="#E6E6E6"/>
<path d="M378.911 140.645C378.632 140.554 378.336 140.517 378.042 140.537C377.748 140.557 377.46 140.633 377.196 140.76C376.932 140.888 376.697 141.066 376.503 141.282C376.309 141.499 376.161 141.75 376.068 142.022C375.974 142.295 375.936 142.582 375.957 142.868C375.977 143.155 376.056 143.434 376.187 143.691C376.319 143.948 376.501 144.177 376.724 144.366C376.947 144.554 377.205 144.698 377.485 144.789L420.674 158.867C421.238 159.047 421.852 159.003 422.383 158.744C422.913 158.485 423.317 158.033 423.505 157.485C423.694 156.938 423.652 156.34 423.389 155.822C423.125 155.305 422.662 154.91 422.101 154.723L378.911 140.645Z" fill="#E6E6E6"/>
<path d="M369.24 231.354L298.636 208.34L324.893 185.753C325.363 185.348 325.935 185.071 326.551 184.949C327.166 184.827 327.804 184.865 328.399 185.059C328.995 185.254 329.528 185.597 329.944 186.055C330.36 186.513 330.645 187.069 330.77 187.668L333.749 201.944L352.821 185.538C353.41 185.031 354.126 184.684 354.896 184.532C355.667 184.379 356.465 184.427 357.211 184.67C357.957 184.913 358.624 185.343 359.144 185.917C359.665 186.49 360.022 187.186 360.178 187.936L369.24 231.354ZM301.229 207.828L367.488 229.425L358.882 188.193C358.772 187.664 358.52 187.173 358.153 186.769C357.786 186.365 357.316 186.062 356.791 185.891C356.265 185.72 355.703 185.686 355.16 185.793C354.617 185.901 354.112 186.145 353.697 186.502L332.909 204.386L329.473 187.924C329.394 187.547 329.215 187.196 328.952 186.907C328.69 186.619 328.355 186.402 327.979 186.28C327.604 186.158 327.202 186.134 326.814 186.21C326.426 186.287 326.066 186.462 325.769 186.717L301.229 207.828Z" fill="#E6E6E6"/>
<path d="M459.556 260.793L388.953 237.779L415.209 215.192C415.679 214.787 416.251 214.51 416.867 214.388C417.482 214.267 418.12 214.305 418.716 214.499C419.311 214.693 419.844 215.036 420.26 215.494C420.676 215.952 420.961 216.509 421.086 217.108L424.065 231.384L443.137 214.977C443.726 214.47 444.442 214.123 445.213 213.971C445.983 213.819 446.782 213.867 447.527 214.11C448.273 214.353 448.94 214.783 449.461 215.356C449.982 215.929 450.338 216.626 450.495 217.376L459.556 260.793ZM391.545 237.267L457.804 258.865L449.198 217.632C449.088 217.103 448.836 216.612 448.469 216.208C448.102 215.804 447.632 215.502 447.107 215.33C446.582 215.159 446.019 215.125 445.476 215.233C444.933 215.34 444.428 215.585 444.013 215.942L423.225 233.825L419.789 217.364C419.71 216.986 419.531 216.635 419.269 216.347C419.006 216.058 418.671 215.842 418.295 215.719C417.92 215.597 417.518 215.573 417.13 215.65C416.742 215.726 416.382 215.901 416.085 216.156L391.545 237.267Z" fill="#E6E6E6"/>
<path d="M369.309 231.368L294.046 206.835C293.215 206.563 292.528 205.982 292.137 205.218C291.746 204.454 291.683 203.571 291.96 202.762L306.032 161.887C306.311 161.079 306.909 160.411 307.694 160.031C308.479 159.65 309.387 159.588 310.219 159.858L385.482 184.391C386.313 184.663 387 185.245 387.391 186.008C387.782 186.772 387.845 187.655 387.568 188.465L373.496 229.339C373.216 230.148 372.619 230.816 371.834 231.196C371.049 231.576 370.141 231.638 369.309 231.368ZM309.798 161.079C309.299 160.917 308.755 160.954 308.284 161.182C307.813 161.41 307.454 161.811 307.286 162.296L293.215 203.171C293.048 203.656 293.086 204.186 293.321 204.645C293.555 205.103 293.967 205.452 294.466 205.615L369.73 230.148C370.229 230.31 370.773 230.273 371.244 230.044C371.715 229.816 372.074 229.415 372.242 228.93L386.313 188.056C386.48 187.57 386.442 187.04 386.207 186.582C385.973 186.124 385.561 185.775 385.062 185.612L309.798 161.079Z" fill="#E6E6E6"/>
<path d="M265.163 342.54C264.883 342.447 264.587 342.409 264.292 342.428C263.997 342.447 263.708 342.522 263.443 342.65C263.178 342.778 262.941 342.955 262.747 343.172C262.552 343.389 262.403 343.641 262.31 343.914C262.216 344.187 262.178 344.476 262.199 344.763C262.22 345.05 262.299 345.33 262.432 345.588C262.564 345.845 262.748 346.074 262.972 346.263C263.196 346.451 263.456 346.594 263.737 346.684L306.926 360.762C307.206 360.853 307.501 360.89 307.796 360.87C308.09 360.85 308.377 360.774 308.642 360.646C308.906 360.519 309.141 360.341 309.335 360.125C309.529 359.908 309.676 359.657 309.77 359.384C309.864 359.112 309.902 358.825 309.881 358.538C309.86 358.252 309.782 357.973 309.651 357.716C309.519 357.459 309.337 357.23 309.114 357.041C308.891 356.853 308.633 356.709 308.353 356.618L265.163 342.54Z" fill="#E6E6E6"/>
<path d="M260.961 354.746C260.398 354.566 259.783 354.61 259.253 354.868C258.722 355.127 258.319 355.58 258.13 356.127C257.942 356.675 257.984 357.273 258.247 357.79C258.51 358.308 258.973 358.703 259.535 358.889L302.724 372.967C303.288 373.148 303.902 373.104 304.433 372.845C304.963 372.586 305.367 372.134 305.555 371.586C305.744 371.038 305.702 370.441 305.439 369.923C305.175 369.405 304.712 369.01 304.151 368.824L260.961 354.746Z" fill="#E6E6E6"/>
<path d="M269.229 400.496C266.579 399.632 264.251 398.023 262.54 395.872C260.83 393.721 259.813 391.124 259.619 388.411C259.425 385.697 260.062 382.989 261.45 380.628C262.838 378.267 264.915 376.359 267.417 375.147C269.919 373.934 272.734 373.47 275.507 373.814C278.28 374.159 280.885 375.295 282.994 377.08C285.103 378.866 286.621 381.219 287.355 383.844C288.09 386.468 288.008 389.245 287.12 391.825C285.926 395.281 283.371 398.134 280.017 399.76C276.663 401.386 272.783 401.651 269.229 400.496ZM277.788 375.637C275.385 374.854 272.798 374.781 270.353 375.429C267.909 376.077 265.716 377.415 264.053 379.275C262.39 381.135 261.332 383.433 261.011 385.879C260.69 388.324 261.122 390.807 262.252 393.014C263.382 395.221 265.158 397.052 267.358 398.276C269.557 399.5 272.08 400.062 274.607 399.891C277.135 399.72 279.554 398.824 281.558 397.315C283.561 395.806 285.061 393.753 285.865 391.416C286.94 388.281 286.694 384.859 285.179 381.901C283.665 378.943 281.007 376.69 277.788 375.637Z" fill="#E6E6E6"/>
<path d="M383.649 437.792C383.929 437.885 384.225 437.923 384.52 437.905C384.815 437.886 385.104 437.81 385.369 437.683C385.634 437.555 385.871 437.378 386.065 437.161C386.26 436.944 386.408 436.691 386.502 436.418C386.596 436.145 386.634 435.857 386.613 435.57C386.592 435.283 386.513 435.002 386.38 434.745C386.248 434.488 386.064 434.258 385.84 434.07C385.616 433.882 385.356 433.739 385.075 433.649L341.886 419.571C341.606 419.478 341.309 419.44 341.014 419.459C340.719 419.478 340.43 419.553 340.165 419.681C339.9 419.808 339.663 419.986 339.469 420.203C339.274 420.42 339.126 420.672 339.032 420.945C338.938 421.218 338.9 421.506 338.921 421.794C338.942 422.081 339.021 422.361 339.154 422.618C339.286 422.876 339.47 423.105 339.694 423.293C339.918 423.481 340.178 423.624 340.459 423.714L383.649 437.792Z" fill="#E6E6E6"/>
<path d="M387.851 425.587C388.13 425.678 388.426 425.715 388.72 425.695C389.014 425.675 389.302 425.599 389.566 425.471C389.83 425.344 390.066 425.166 390.259 424.95C390.453 424.733 390.601 424.482 390.695 424.209C390.788 423.937 390.826 423.65 390.805 423.363C390.785 423.077 390.706 422.797 390.575 422.541C390.443 422.284 390.261 422.055 390.038 421.866C389.816 421.678 389.557 421.534 389.277 421.443L346.088 407.365C345.808 407.272 345.511 407.234 345.216 407.253C344.921 407.272 344.632 407.347 344.367 407.475C344.102 407.603 343.865 407.78 343.671 407.997C343.476 408.214 343.328 408.466 343.234 408.739C343.14 409.012 343.102 409.301 343.123 409.588C343.144 409.875 343.223 410.155 343.356 410.413C343.489 410.67 343.672 410.899 343.896 411.088C344.12 411.276 344.38 411.419 344.661 411.509L387.851 425.587Z" fill="#E6E6E6"/>
<path d="M379.583 379.836C382.233 380.7 384.561 382.31 386.272 384.461C387.982 386.612 388.999 389.209 389.193 391.922C389.387 394.635 388.75 397.344 387.362 399.705C385.974 402.066 383.897 403.973 381.395 405.186C378.893 406.399 376.078 406.863 373.305 406.518C370.532 406.174 367.927 405.038 365.818 403.252C363.709 401.467 362.191 399.114 361.457 396.489C360.722 393.865 360.804 391.087 361.692 388.508C362.886 385.052 365.441 382.198 368.795 380.573C372.149 378.947 376.028 378.682 379.583 379.836ZM371.024 404.696C373.427 405.479 376.014 405.551 378.459 404.904C380.903 404.256 383.096 402.918 384.759 401.058C386.422 399.198 387.48 396.899 387.801 394.454C388.122 392.008 387.69 389.525 386.56 387.319C385.43 385.112 383.654 383.281 381.454 382.056C379.255 380.832 376.732 380.27 374.204 380.441C371.677 380.613 369.258 381.509 367.254 383.018C365.251 384.526 363.751 386.579 362.947 388.917C361.872 392.052 362.118 395.474 363.633 398.432C365.147 401.39 367.805 403.643 371.024 404.696Z" fill="#E6E6E6"/>
</g>
<defs>
<clipPath id="clip0">
<rect width="558" height="538" fill="white"/>
</clipPath>
</defs>
</svg>
