<svg width="846" height="703" viewBox="0 0 846 703" fill="none" xmlns="http://www.w3.org/2000/svg">
<g clip-path="url(#clip0)">
<path opacity="0.1" d="M511.398 118.804C456.222 116.858 403.664 98.7983 353.484 79.0352C303.304 59.2721 253.602 37.3736 199.747 26.9041C165.109 20.1695 125.492 19.2185 97.5889 38.0479C70.7257 56.203 62.047 87.4557 57.3837 116.487C53.8713 138.325 51.8081 161.304 61.4332 181.75C68.1085 195.945 79.9672 207.876 88.16 221.518C116.694 268.825 96.5318 327.164 65.6106 373.355C51.1176 395.029 34.2802 415.717 23.095 438.766C11.9098 461.814 6.72645 488.26 16.5135 511.792C26.2238 535.134 49.3529 552.633 74.4001 564.952C125.288 589.98 185.229 597.138 243.721 601.193C373.16 610.176 503.282 606.285 633.062 602.395C681.093 600.951 729.329 599.49 776.576 591.96C802.817 587.776 829.902 581.145 848.956 565.116C873.134 544.774 879.127 510.323 862.929 484.819C835.742 442.033 760.626 431.408 741.597 385.485C731.145 360.214 741.887 332.065 757.079 308.619C789.68 258.338 844.318 214.222 847.2 156.748C849.178 117.265 822.903 77.7384 782.288 59.056C739.722 39.4052 680.676 41.8951 649.286 74.3062C616.941 107.703 560.111 120.515 511.398 118.804Z" fill="#F9A826"/>
<path d="M371.233 596.957L79.4301 595.513L50.4356 526.55L152.961 519.002L135.092 443.391L337.874 416.737L143.694 348.284L160.846 344.152L473.085 395.807L455.889 513.807L431.311 578.655L371.233 596.957Z" fill="#F9A826"/>
<path d="M83.9058 566.629C83.9058 566.629 101.809 563.725 112.551 576.554C112.551 576.554 104.673 582.848 87.7252 574.133L83.9058 566.629Z" fill="#F9A826"/>
<path d="M82.0303 566.344C82.0303 566.344 70.6064 580.6 76.2331 596.473C76.2331 596.473 85.5427 592.695 86.5572 573.45L82.0303 566.344Z" fill="#F9A826"/>
<path d="M71.7658 542.907C71.7658 542.907 78.9271 529.584 107.572 548.232C107.572 548.232 103.753 557.189 91.1012 556.462C78.4497 555.736 75.1077 549.927 71.7658 542.907Z" fill="#F9A826"/>
<path d="M69.9158 541.947C69.9158 541.947 55.0563 540.218 53.6155 574.713C53.6155 574.713 63.0359 576.692 69.7283 565.782C76.4206 554.872 73.6755 548.751 69.9158 541.947Z" fill="#F9A826"/>
<path d="M61.2627 514.429C61.2627 514.429 69.6175 490.948 99.9334 507.651C99.9334 507.651 93.0108 529.195 64.3659 522.417L61.2627 514.429Z" fill="#F9A826"/>
<path d="M51.9531 479.329C51.9531 479.329 67.7078 455.606 95.6366 477.6C95.6366 477.6 85.8496 499.87 54.3402 487.767L51.9531 479.329Z" fill="#F9A826"/>
<path d="M48.6112 445.924C48.6112 445.924 66.9917 424.129 94.6477 445.924C94.6477 445.924 77.222 465.047 48.6112 451.491V445.924Z" fill="#F9A826"/>
<path d="M45.7467 413.478C45.7467 413.478 64.3659 390.724 90.8625 412.268C90.8625 412.268 69.8562 432.359 45.7467 418.804V413.478Z" fill="#F9A826"/>
<path d="M47.4176 384.672C47.4176 384.672 67.0258 355.382 91.8173 375.231C91.8173 375.231 70.811 400.406 47.4176 390.239V384.672Z" fill="#F9A826"/>
<path d="M51.9531 351.025C51.9531 351.025 72.7207 321.976 96.8302 344.247C96.8302 344.247 72.2432 369.422 51.9531 356.35V351.025Z" fill="#F9A826"/>
<path d="M58.8756 320.948C58.8756 320.948 83.4625 293.646 104.912 304.522C104.912 304.522 79.2936 333.518 57.8014 328.192L58.8756 320.948Z" fill="#F9A826"/>
<path d="M67.4691 292.435C67.4691 292.435 95.8412 258.995 112.346 270.165C112.346 270.165 91.4422 296.101 65.4571 298.695L67.4691 292.435Z" fill="#F9A826"/>
<path d="M79.8734 259.367C79.8734 259.367 104.708 232.065 122.849 238.843C122.849 238.843 101.604 267.165 76.54 267.891L79.8734 259.367Z" fill="#F9A826"/>
<path d="M91.1012 228.434C91.1012 228.434 118.553 202.291 130.488 206.89C130.488 206.89 110.675 235.938 89.9076 234.244L91.1012 228.434Z" fill="#F9A826"/>
<path d="M102.082 199.87C102.082 199.87 125.714 168.635 138.613 171.056C138.613 171.056 124.282 198.902 102.082 203.043V199.87Z" fill="#F9A826"/>
<path d="M114 161.356C114 161.356 134.887 137.417 146.174 137.469C146.174 137.469 129.687 169.456 113.139 169.162L114 161.356Z" fill="#F9A826"/>
<path d="M121.059 135.714L141.238 85.8477C141.238 85.8477 142.244 130.924 118.493 144.964L121.059 135.714Z" fill="#F9A826"/>
<path d="M129.252 80.721C129.252 80.721 132.594 39.0767 130.445 35.6877C130.445 35.6877 144.87 70.3121 129.115 99.1182L129.252 80.721Z" fill="#F9A826"/>
<path d="M60.4784 513.876C60.4784 513.876 39.5573 500.726 26.0106 532.895C26.0106 532.895 44.6299 545.431 62.9422 522.08L60.4784 513.876Z" fill="#F9A826"/>
<path d="M51.2796 477.989C51.2796 477.989 25.6185 466.119 13.1716 499.706C13.1716 499.706 32.9928 513.539 53.6155 486.479L51.2796 477.989Z" fill="#F9A826"/>
<path d="M47.4176 447.921C47.4176 447.921 29.0371 426.126 1.3811 447.921C1.3811 447.921 18.8068 467.044 47.4176 453.488V447.921Z" fill="#F9A826"/>
<path d="M45.1158 413.478C45.1158 413.478 26.4966 390.724 0 412.268C0 412.268 21.0063 432.359 45.1158 418.804V413.478Z" fill="#F9A826"/>
<path d="M47.4176 385.502C47.4176 385.502 34.3569 352.693 5.9677 366.802C5.9677 366.802 21.3132 395.894 46.2582 390.948L47.4176 385.502Z" fill="#F9A826"/>
<path d="M53.5984 350.86C53.5984 350.86 40.6144 317.481 11.8246 332.956C11.8246 332.956 29.4548 363.552 52.3197 356.013L53.5984 350.86Z" fill="#F9A826"/>
<path d="M61.6463 321.112C61.6463 321.112 56.5311 284.516 32.6604 281.24C32.6604 281.24 37.7244 319.832 58.4323 327.708L61.6463 321.112Z" fill="#F9A826"/>
<path d="M68.0744 292.505C68.0744 292.505 66.0795 248.414 46.3434 246.875C46.3434 246.875 47.0084 280.341 65.8493 298.746L68.0744 292.505Z" fill="#F9A826"/>
<path d="M81.9194 258.131C81.9194 258.131 76.037 221.466 57.1961 216.988C57.1961 216.988 59.532 252.494 80.0524 267.131L81.9194 258.131Z" fill="#F9A826"/>
<path d="M93.3348 228.737C93.3348 228.737 93.1387 190.542 81.6296 184.931C81.6296 184.931 74.4939 219.512 90.0014 233.613L93.3348 228.737Z" fill="#F9A826"/>
<path d="M102.96 199.438C102.96 199.438 101.349 160.111 89.4302 154.569C89.4302 154.569 85.3551 185.692 101.178 202.014L102.96 199.438Z" fill="#F9A826"/>
<path d="M115.662 164.494C115.662 164.494 115.594 132.506 107.086 125.002C107.086 125.002 98.629 160.042 111.221 170.926L115.662 164.494Z" fill="#F9A826"/>
<path d="M120.062 134.14L111.783 80.9026C111.783 80.9026 100.539 124.527 120.454 143.754L120.062 134.14Z" fill="#F9A826"/>
<path d="M121.673 81.2225C121.673 81.2225 100.428 45.431 100.863 41.4542C100.863 41.4542 103.122 78.966 129.849 97.6485L121.673 81.2225Z" fill="#F9A826"/>
<path d="M124.162 70.6493C124.162 70.6493 104.111 19.815 95.0398 15.6998C95.0398 15.6998 123.685 30.466 125.833 69.1969L124.162 70.6493Z" fill="#F9A826"/>
<path d="M113.037 169.465L111.664 169.041C128.587 113.08 132.807 77.4012 123.557 68.4534L124.537 67.3987C134.35 76.8393 130.369 112.129 113.037 169.465Z" fill="#444053"/>
<path d="M66.4375 300.493L64.4085 299.758C66.2073 294.631 68.1426 289.427 70.1716 284.3C87.836 239.656 102.875 198.124 112.517 166.24L114.281 165.376C104.622 197.32 89.8479 240.443 72.1665 285.147C70.146 290.179 68.2193 295.358 66.4375 300.493Z" fill="#444053"/>
<path d="M109.132 608.507C108.859 608.204 81.4335 576.883 62.3113 523.411C51.1068 492.106 44.8712 459.197 43.837 425.91C42.5241 384.3 51.1346 337.84 65.8834 295.634L67.4861 297.536C34.3739 392.263 47.5285 473.433 64.9797 522.314C83.8973 575.301 111.016 606.277 111.281 606.588L109.132 608.507Z" fill="#444053"/>
<path d="M537.715 542.008C537.715 542.008 518.388 565.929 533.734 602.092L379.426 669.958L364.618 673.105L357.798 642.846L362.359 604.66V583.79L537.715 542.008Z" fill="#D5D6DB"/>
<path d="M50.4356 526.55L264.011 487.067L547.008 532.783L371.233 596.957L50.4356 526.55Z" fill="#F9A826"/>
<path d="M50.4356 526.55L264.011 487.067L547.008 532.783L371.233 596.957L50.4356 526.55Z" fill="#F9A826"/>
<path d="M50.4356 526.541C50.4356 526.541 30.4608 564.918 53.4791 600.363L370.193 669.958C370.193 669.958 350.534 639.388 371.208 596.957L50.4356 526.541Z" fill="#F9A826"/>
<path opacity="0.1" d="M50.4356 526.541C50.4356 526.541 30.4608 564.918 53.4791 600.363L370.193 669.958C370.193 669.958 350.534 639.388 371.208 596.957L50.4356 526.541Z" fill="black"/>
<path opacity="0.1" d="M59.873 539.846C59.873 539.846 48.4577 567.926 59.873 586.098V539.846Z" fill="black"/>
<path d="M370.193 669.958L547.008 593.447C547.008 593.447 556.897 595.608 550.503 602.957C544.109 610.305 373.603 677.306 373.603 677.306L53.4791 600.363L370.193 669.958Z" fill="#F9A826"/>
<path opacity="0.1" d="M370.193 669.958L547.008 593.447C547.008 593.447 556.897 595.608 550.503 602.957C544.109 610.305 373.603 677.306 373.603 677.306L53.4791 600.363L370.193 669.958Z" fill="black"/>
<path opacity="0.1" d="M355.7 604.686C355.7 604.686 338.65 625.435 355.7 656.558V604.686Z" fill="black"/>
<path opacity="0.1" d="M438.248 604.335L361.769 630.21L362.039 631.03L438.518 605.155L438.248 604.335Z" fill="black"/>
<path opacity="0.1" d="M453.567 601.76L361.745 637.168L362.048 637.976L453.87 602.568L453.567 601.76Z" fill="black"/>
<path opacity="0.1" d="M467.635 601.636L362.257 645.376L362.58 646.176L467.958 602.436L467.635 601.636Z" fill="black"/>
<path opacity="0.1" d="M482.933 597.891L363.487 652.607L363.838 653.395L483.284 598.678L482.933 597.891Z" fill="black"/>
<path opacity="0.1" d="M495.786 597.908L364.433 656.131L364.774 656.923L496.127 598.701L495.786 597.908Z" fill="black"/>
<path opacity="0.1" d="M523.898 593.067L366.413 662.044L366.751 662.837L524.236 593.861L523.898 593.067Z" fill="black"/>
<path opacity="0.3" d="M129.78 530.769L279.825 498.781L371.233 516.504L248.282 556.705L129.78 530.769Z" fill="white"/>
<path d="M547.008 532.783C547.008 532.783 554.766 535.956 550.213 540.858C545.661 545.76 371.208 596.957 371.208 596.957L547.008 532.783Z" fill="#F9A826"/>
<path d="M622.363 458.857C622.363 458.857 603.044 482.77 618.39 518.942L464.082 586.807L449.274 589.972L442.454 559.713L447.083 521.535V500.64L622.363 458.857Z" fill="#D5D6DB"/>
<path d="M135.092 443.391L348.658 403.916L631.664 449.633L455.89 513.807L135.092 443.391Z" fill="#3A3768"/>
<path d="M135.058 443.391C135.058 443.391 115.074 481.767 138.093 517.213L454.807 586.807C454.807 586.807 435.156 556.212 455.855 513.798L135.058 443.391Z" fill="#3A3768"/>
<path opacity="0.1" d="M135.058 443.391C135.058 443.391 115.074 481.767 138.093 517.213L454.807 586.807C454.807 586.807 435.156 556.212 455.855 513.798L355.7 491.813L135.058 443.391Z" fill="black"/>
<path opacity="0.1" d="M144.521 456.696C144.521 456.696 133.114 484.767 144.521 502.948V456.696Z" fill="black"/>
<path d="M454.841 586.807L631.664 510.297C631.664 510.297 641.545 512.458 635.151 519.806C628.757 527.155 458.251 594.156 458.251 594.156L138.127 517.213L454.841 586.807Z" fill="#3A3768"/>
<path opacity="0.1" d="M454.841 586.807L631.664 510.297C631.664 510.297 641.545 512.458 635.151 519.806C628.757 527.155 458.251 594.156 458.251 594.156L138.127 517.213L454.841 586.807Z" fill="black"/>
<path opacity="0.1" d="M440.348 521.535C440.348 521.535 423.297 542.284 440.348 573.407V521.535Z" fill="black"/>
<path opacity="0.1" d="M522.902 521.194L446.423 547.068L446.693 547.889L523.172 522.014L522.902 521.194Z" fill="black"/>
<path opacity="0.1" d="M538.232 518.615L446.409 554.023L446.712 554.831L538.535 519.423L538.232 518.615Z" fill="black"/>
<path opacity="0.1" d="M552.287 518.479L446.909 562.219L447.232 563.019L552.61 519.279L552.287 518.479Z" fill="black"/>
<path opacity="0.1" d="M567.595 514.735L448.149 569.452L448.5 570.239L567.946 515.523L567.595 514.735Z" fill="black"/>
<path opacity="0.1" d="M580.436 514.742L449.083 572.964L449.424 573.756L580.777 515.534L580.436 514.742Z" fill="black"/>
<path opacity="0.1" d="M608.554 509.901L451.07 578.877L451.408 579.671L608.892 510.694L608.554 509.901Z" fill="black"/>
<path opacity="0.45" d="M214.436 447.618L364.481 415.631L455.889 433.354L332.938 473.554L214.436 447.618Z" fill="white"/>
<path d="M631.664 449.633C631.664 449.633 639.413 452.805 634.869 457.699C630.325 462.592 455.889 513.798 455.889 513.798L631.664 449.633Z" fill="#3A3768"/>
<path d="M630.376 363.733C630.376 363.733 611.05 406.674 626.395 442.837L472.087 491.683L457.313 494.856L450.493 464.598L455.054 426.411V405.516L630.376 363.733Z" fill="#D5D6DB"/>
<path d="M143.131 348.275L356.706 308.792L639.712 354.509L463.929 418.683L143.131 348.275Z" fill="#F9A826"/>
<path d="M143.131 348.267C143.131 348.267 123.122 386.643 146.14 422.089L462.855 491.683C462.855 491.683 443.195 461.088 463.895 418.683L143.131 348.267Z" fill="#F9A826"/>
<path opacity="0.1" d="M143.131 348.267C143.131 348.267 123.122 386.643 146.14 422.089L462.855 491.683C462.855 491.683 443.195 461.088 463.895 418.683L143.131 348.267Z" fill="black"/>
<path opacity="0.1" d="M152.568 361.572C152.568 361.572 141.153 389.652 152.568 407.824V361.572Z" fill="black"/>
<path d="M462.889 491.683L639.703 434.192C639.703 434.192 649.592 436.353 643.198 443.702C636.805 451.05 466.299 499.032 466.299 499.032L146.174 422.089L462.889 491.683Z" fill="#F9A826"/>
<path opacity="0.1" d="M462.889 491.683L639.703 434.192C639.703 434.192 649.592 436.353 643.198 443.702C636.805 451.05 466.299 499.032 466.299 499.032L146.174 422.089L462.889 491.683Z" fill="black"/>
<path opacity="0.1" d="M448.396 426.411C448.396 426.411 431.345 447.16 448.396 478.283V426.411Z" fill="black"/>
<path opacity="0.1" d="M530.953 426.068L454.473 451.943L454.743 452.763L531.223 426.888L530.953 426.068Z" fill="black"/>
<path opacity="0.1" d="M546.276 423.494L454.454 458.902L454.757 459.71L546.579 424.302L546.276 423.494Z" fill="black"/>
<path opacity="0.1" d="M560.324 423.362L454.946 467.101L455.269 467.902L560.647 424.162L560.324 423.362Z" fill="black"/>
<path opacity="0.1" d="M575.644 419.61L456.198 474.327L456.549 475.115L575.995 420.398L575.644 419.61Z" fill="black"/>
<path opacity="0.1" d="M588.488 419.625L457.135 477.847L457.477 478.64L588.83 420.417L588.488 419.625Z" fill="black"/>
<path opacity="0.1" d="M616.604 414.789L459.12 483.766L459.458 484.56L616.942 415.583L616.604 414.789Z" fill="black"/>
<path opacity="0.3" d="M222.476 352.494L372.521 320.507L463.929 338.23L340.977 378.43L222.476 352.494Z" fill="white"/>
<path d="M639.703 354.509C639.703 354.509 647.461 357.681 642.909 362.583C638.356 367.485 463.929 418.683 463.929 418.683L639.703 354.509Z" fill="#F9A826"/>
<path d="M264.642 92.0723C264.642 92.0723 232.246 90.0925 236.031 113.141C236.031 113.141 235.272 117.213 238.913 119.063C238.913 119.063 238.972 117.334 242.237 117.93C243.403 118.133 244.588 118.191 245.767 118.103C247.356 117.993 248.867 117.362 250.072 116.305C250.072 116.305 259.186 112.484 262.732 97.3718C262.732 97.3718 265.358 94.078 265.29 93.2307L259.799 95.5996C259.799 95.5996 261.666 99.6023 260.2 102.931C260.2 102.931 260.021 95.7465 258.964 95.9108C258.751 95.9108 256.125 97.3027 256.125 97.3027C256.125 97.3027 259.339 104.279 256.909 109.346C256.909 109.346 257.83 100.752 255.119 97.8041L251.266 100.086C251.266 100.086 255.025 107.288 252.476 113.167C252.476 113.167 253.133 104.15 250.456 100.64L246.96 103.406C246.96 103.406 250.498 110.504 248.341 115.38C248.341 115.38 248.06 104.885 246.21 104.089C246.21 104.089 243.15 106.821 242.689 107.945C242.689 107.945 245.11 113.132 243.601 115.821C243.601 115.821 242.689 108.827 241.896 108.792C241.896 108.792 238.853 113.426 238.537 116.573C238.685 113.639 239.587 110.796 241.155 108.325C239.401 108.662 237.782 109.513 236.5 110.772C236.5 110.772 236.969 107.495 241.913 107.21C241.913 107.21 244.428 103.692 245.102 103.484C245.102 103.484 240.183 103.06 237.207 104.4C237.207 104.4 239.833 101.314 245.997 102.671L249.407 99.8185C249.407 99.8185 242.945 98.9539 240.2 99.9136C240.2 99.9136 243.363 97.1816 250.336 99.1701L254.096 96.8963C254.096 96.8963 248.58 95.6947 245.298 96.1269C245.298 96.1269 248.759 94.2336 255.196 96.2825L257.873 95.0636C257.873 95.0636 253.84 94.2595 252.655 94.1299C251.47 94.0002 251.411 93.6717 251.411 93.6717C253.97 93.2454 256.596 93.5446 258.998 94.5362C258.998 94.5362 264.753 92.4354 264.642 92.0723Z" fill="#F9A826"/>
<path opacity="0.1" d="M720.403 186.807C720.403 186.807 688.007 184.828 691.793 207.876C691.793 207.876 691.034 211.948 694.674 213.798C694.674 213.798 694.734 212.069 697.999 212.665C699.165 212.864 700.349 212.922 701.528 212.838C703.103 212.721 704.599 212.09 705.791 211.04C705.791 211.04 714.913 207.219 718.451 192.107C718.451 192.107 721.077 188.813 721.009 187.966L715.535 190.335C715.535 190.335 717.402 194.337 715.936 197.666C715.936 197.666 715.757 190.482 714.708 190.646C714.495 190.646 711.861 192.038 711.861 192.038C711.861 192.038 715.075 199.014 712.654 204.081C712.654 204.081 713.575 195.487 710.855 192.539L707.002 194.821C707.002 194.821 710.761 202.023 708.212 207.902C708.212 207.902 708.869 198.885 706.192 195.375L702.705 198.141C702.705 198.141 706.234 205.239 704.077 210.115C704.077 210.115 703.796 199.62 701.946 198.824C701.946 198.824 698.894 201.556 698.425 202.68C698.425 202.68 700.846 207.867 699.346 210.556C699.346 210.556 698.425 203.562 697.641 203.527C697.641 203.527 694.597 208.161 694.282 211.308C694.43 208.373 695.335 205.529 696.908 203.06C695.151 203.398 693.531 204.248 692.244 205.507C692.244 205.507 692.722 202.231 697.658 201.945C697.658 201.945 700.173 198.427 700.846 198.21C700.846 198.21 695.936 197.795 692.952 199.136C692.952 199.136 695.578 196.049 701.742 197.406L705.152 194.553C705.152 194.553 698.681 193.689 695.944 194.649C695.944 194.649 699.099 191.917 706.081 193.905L709.832 191.631C709.832 191.631 704.316 190.43 701.034 190.862C701.034 190.862 704.495 188.969 710.932 191.018L713.617 189.799C713.617 189.799 709.576 188.995 708.391 188.865C707.206 188.735 707.147 188.407 707.147 188.407C709.706 187.975 712.333 188.274 714.734 189.271C714.734 189.271 720.506 187.17 720.403 186.807Z" fill="#F9A826"/>
<path opacity="0.1" d="M319.204 234.46C319.204 234.46 305.086 204.781 287.114 219.409C287.114 219.409 283.235 220.723 283.423 224.847C283.423 224.847 284.915 224.06 285.981 227.241C286.379 228.366 286.905 229.44 287.549 230.44C288.422 231.796 289.705 232.828 291.207 233.379C291.207 233.379 298.939 239.587 313.679 235.351C313.679 235.351 317.797 236.068 318.47 235.567L313.765 231.875C313.765 231.875 311.207 235.48 307.643 235.8C307.643 235.8 313.747 232.143 313.091 231.296C312.955 231.123 310.533 229.455 310.533 229.455C310.533 229.455 306.092 235.705 300.55 236.025C300.55 236.025 308.394 232.653 309.604 228.806L305.768 226.507C305.768 226.507 301.394 233.354 295.094 233.959C295.094 233.959 303.176 230.146 304.89 226.066L300.815 224.337C300.815 224.337 296.424 230.924 291.173 231.4C291.173 231.4 300.073 226.031 299.851 223.999C299.851 223.999 296.006 222.633 294.813 222.763C294.813 222.763 291.556 227.423 288.487 227.423C288.487 227.423 294.054 223.195 293.713 222.512C293.713 222.512 288.24 222.08 285.358 223.377C287.955 222.068 290.844 221.472 293.739 221.648C292.59 220.259 291.067 219.241 289.357 218.717C289.357 218.717 292.409 217.541 295.06 221.769C295.06 221.769 299.323 222.279 299.826 222.772C299.826 222.772 297.788 218.224 295.188 216.245C295.188 216.245 299.127 217.049 300.925 223.161L305.06 224.821C305.06 224.821 302.682 218.665 300.491 216.72C300.491 216.72 304.378 218.181 306.075 225.365L309.86 227.579C309.86 227.579 308.215 222.106 306.237 219.417C306.237 219.417 309.553 221.561 310.926 228.253L313.287 230.034C313.287 230.034 312.008 226.066 311.582 224.959C311.156 223.852 311.369 223.628 311.369 223.628C312.991 225.68 314.018 228.15 314.336 230.76C314.336 230.76 318.897 234.72 319.204 234.46Z" fill="#F9A826"/>
<path opacity="0.1" d="M646.387 144.878C646.387 144.878 632.278 115.198 614.298 129.826C614.298 129.826 610.427 131.14 610.606 135.264C610.606 135.264 612.107 134.486 613.164 137.659C613.561 138.788 614.091 139.865 614.741 140.866C615.61 142.22 616.891 143.249 618.39 143.797C618.39 143.797 626.131 150.004 640.862 145.777C640.862 145.777 644.98 146.486 645.662 145.984L640.982 142.284C640.982 142.284 638.424 145.898 634.869 146.218C634.869 146.218 640.965 142.552 640.308 141.705C640.172 141.532 637.751 139.863 637.751 139.863C637.751 139.863 633.318 146.114 627.768 146.434C627.768 146.434 635.619 143.062 636.83 139.224L632.934 136.941C632.934 136.941 628.569 143.78 622.26 144.394C622.26 144.394 630.342 140.572 632.064 136.492L627.981 134.763C627.981 134.763 623.59 141.359 618.347 141.826C618.347 141.826 627.239 136.457 627.017 134.434C627.017 134.434 623.181 133.06 621.987 133.198C621.987 133.198 618.731 137.849 615.653 137.849C615.653 137.849 621.229 133.622 620.888 132.939C620.888 132.939 615.415 132.506 612.524 133.803C615.121 132.494 618.01 131.898 620.905 132.074C619.761 130.685 618.24 129.666 616.531 129.143C616.531 129.143 619.583 127.968 622.235 132.195C622.235 132.195 626.497 132.714 627 133.207C627 133.207 624.963 128.65 622.354 126.671C622.354 126.671 626.293 127.483 628.092 133.63L632.235 135.29C632.235 135.29 629.856 129.126 627.665 127.181C627.665 127.181 631.553 128.642 633.241 135.826L637.035 138.039C637.035 138.039 635.381 132.575 633.403 129.878C633.403 129.878 636.728 132.022 638.092 138.714L640.453 140.495C640.453 140.495 639.183 136.526 638.748 135.42C638.313 134.313 638.535 134.097 638.535 134.097C640.152 136.152 641.176 138.62 641.493 141.229C641.493 141.229 646.123 145.154 646.387 144.878Z" fill="#F9A826"/>
<path opacity="0.1" d="M691.477 291.683C691.477 291.683 677.368 261.995 659.362 276.623C659.362 276.623 655.492 277.937 655.671 282.061C655.671 282.061 657.171 281.283 658.228 284.456C658.623 285.585 659.15 286.662 659.797 287.663C660.666 289.017 661.947 290.046 663.446 290.594C663.446 290.594 671.187 296.81 685.927 292.574C685.927 292.574 690.036 293.291 690.718 292.781L686.012 289.09C686.012 289.09 683.455 292.703 679.891 293.023C679.891 293.023 685.987 289.358 685.33 288.51C685.194 288.338 682.773 286.669 682.773 286.669C682.773 286.669 678.34 292.92 672.79 293.248C672.79 293.248 680.641 289.868 681.852 286.029L678.007 283.73C678.007 283.73 673.642 290.577 667.333 291.182C667.333 291.182 675.415 287.361 677.138 283.28L673.054 281.551C673.054 281.551 668.663 288.139 663.42 288.614C663.42 288.614 672.321 283.246 672.099 281.214C672.099 281.214 668.254 279.839 667.061 279.978C667.061 279.978 663.804 284.629 660.726 284.629C660.726 284.629 666.302 280.401 665.961 279.718C665.961 279.718 660.488 279.286 657.598 280.583C660.197 279.274 663.089 278.678 665.987 278.854C664.841 277.462 663.317 276.443 661.605 275.923C661.605 275.923 664.657 274.739 667.308 278.975C667.308 278.975 671.571 279.485 672.074 279.978C672.074 279.978 670.036 275.43 667.436 273.442C667.436 273.442 671.374 274.254 673.173 280.401L677.308 282.061C677.308 282.061 674.93 275.897 672.739 273.96C672.739 273.96 676.626 275.413 678.314 282.606L682.108 284.81C682.108 284.81 680.454 279.346 678.476 276.649C678.476 276.649 681.801 278.793 683.173 285.493L685.535 287.222C685.535 287.222 684.256 283.254 683.83 282.148C683.404 281.041 683.617 280.825 683.617 280.825C685.238 282.877 686.262 285.347 686.575 287.957C686.575 287.957 691.213 291.943 691.477 291.683Z" fill="#F9A826"/>
<path opacity="0.1" d="M172.168 677.929C182.993 677.929 191.768 676.934 191.768 675.707C191.768 674.48 182.993 673.485 172.168 673.485C161.344 673.485 152.568 674.48 152.568 675.707C152.568 676.934 161.344 677.929 172.168 677.929Z" fill="#F9A826"/>
<path opacity="0.1" d="M43.6835 640.166C54.5081 640.166 63.2832 639.171 63.2832 637.944C63.2832 636.717 54.5081 635.722 43.6835 635.722C32.859 635.722 24.0839 636.717 24.0839 637.944C24.0839 639.171 32.859 640.166 43.6835 640.166Z" fill="#F9A826"/>
<path opacity="0.1" d="M270.107 703.009C280.931 703.009 289.706 702.014 289.706 700.787C289.706 699.56 280.931 698.565 270.107 698.565C259.282 698.565 250.507 699.56 250.507 700.787C250.507 702.014 259.282 703.009 270.107 703.009Z" fill="#F9A826"/>
<path opacity="0.1" d="M771.99 648.379C782.814 648.379 791.589 647.384 791.589 646.157C791.589 644.93 782.814 643.935 771.99 643.935C761.165 643.935 752.39 644.93 752.39 646.157C752.39 647.384 761.165 648.379 771.99 648.379Z" fill="#F9A826"/>
<path opacity="0.1" d="M608.893 637.598C619.717 637.598 628.492 636.604 628.492 635.377C628.492 634.149 619.717 633.155 608.893 633.155C598.068 633.155 589.293 634.149 589.293 635.377C589.293 636.604 598.068 637.598 608.893 637.598Z" fill="#F9A826"/>
<path opacity="0.1" d="M503.384 690.179C516.186 690.179 526.564 688.371 526.564 686.142C526.564 683.912 516.186 682.104 503.384 682.104C490.582 682.104 480.204 683.912 480.204 686.142C480.204 688.371 490.582 690.179 503.384 690.179Z" fill="#F9A826"/>
<path d="M513.725 645.561C513.725 645.561 481.448 662.471 498.124 682.39C498.124 682.39 499.692 686.712 504.228 686.41C504.228 686.41 503.324 684.733 506.785 683.393C508.017 682.91 509.188 682.28 510.272 681.516C511.738 680.489 512.833 679.005 513.393 677.289C513.393 677.289 519.991 668.332 514.876 651.759C514.876 651.759 515.541 647.074 514.961 646.313L511.04 651.768C511.04 651.768 515.089 654.526 515.558 658.581C515.558 658.581 511.295 651.777 510.443 652.529C510.255 652.685 508.499 655.512 508.499 655.512C508.499 655.512 515.524 660.344 516.044 666.621C516.044 666.621 512.088 657.828 507.817 656.575L505.37 661.001C505.37 661.001 513.043 665.739 513.895 672.863C513.895 672.863 509.437 663.828 504.884 662.004L503.085 666.681C503.085 666.681 510.485 671.453 511.167 677.384C511.167 677.384 504.978 667.468 502.753 667.779C502.753 667.779 501.355 672.171 501.542 673.528C501.542 673.528 506.768 677.073 506.862 680.557C506.862 680.557 502.037 674.376 501.295 674.782C501.295 674.782 500.988 680.998 502.472 684.231C502.472 684.231 499.914 679.615 500.332 674.782C498.837 676.123 497.761 677.878 497.237 679.831C497.237 679.831 495.847 676.416 500.426 673.269C500.426 673.269 500.86 668.436 501.389 667.84C501.389 667.84 496.436 670.295 494.33 673.303C494.33 673.303 495.106 668.817 501.824 666.586L503.529 661.848C503.529 661.848 496.811 664.736 494.739 667.278C494.739 667.278 496.231 662.825 504.057 660.69L506.376 656.367C506.376 656.367 500.408 658.408 497.493 660.69C497.493 660.69 499.752 656.86 507.092 655.097L508.976 652.373C508.976 652.373 504.646 653.938 503.435 654.5C502.224 655.062 501.986 654.785 501.986 654.785C504.199 652.887 506.887 651.648 509.752 651.206C509.752 651.206 514.023 645.855 513.725 645.561Z" fill="#F9A826"/>
<path d="M609.524 326.178C603.948 310.815 573.257 309.372 559.941 313.288C550.478 316.08 530.528 319.227 519.872 320.809L519.181 320.144C520.562 319.729 520.596 318.708 520.426 317.196C520.327 315.202 520.355 313.203 520.511 311.213C527.042 313.271 532.856 308.403 532.856 308.403C540.528 304.945 538.465 290.144 539.932 286.098C541.031 283.073 542.217 265.246 542.745 256.359H542.856L542.916 253.376C542.992 252.088 543.026 251.336 543.026 251.336C543.026 251.336 543.777 229.602 545.243 225.201C546.607 221.155 547.715 200.77 547.886 197.536C547.886 197.26 547.886 197.113 547.886 197.113L547.775 195.228C547.852 193.853 547.886 192.323 547.877 190.715C547.877 183.323 547.119 174.012 547.025 172.508C547.025 172.292 547.025 172.033 547.025 171.721C547.084 168.566 546.692 152.762 533.435 146.788C528.55 144.575 522.677 141.938 516.99 139.371C515.524 126.532 512.173 113.763 512.463 100.83C512.463 98.8848 512.634 96.9396 512.821 95.0031C512.821 95.565 512.762 96.1356 512.753 96.7321C512.753 97.9857 512.753 99.2479 512.753 100.501C513.256 84.3262 519.284 68.0644 518.721 52.2349C518.67 53.7824 518.559 55.3385 518.414 56.8947C518.708 51.5405 518.156 46.173 516.777 40.996C516.266 39.1718 515.575 37.2872 514.1 36.0682C512.706 35.0864 511.107 34.4444 509.428 34.1922C505.394 33.145 501.296 32.371 497.16 31.8752C496.532 29.9246 495.599 28.0887 494.398 26.4373C485.754 14.4031 472.949 3.09506 457.808 0.501473C450.212 -0.79532 441.473 0.28534 436.307 5.79239C435.767 6.27617 435.26 6.79605 434.789 7.34854C432.01 10.7116 430.817 15.1293 427.969 18.4837C427.782 18.7084 427.568 18.9159 427.364 19.1321C421.788 24.1896 413.101 25.2443 406.903 29.7831C405.811 30.5978 404.787 31.5029 403.843 32.489C401.345 34.9987 399.106 37.7592 397.159 40.728C394.371 44.7048 391.507 48.8459 390.62 53.5922C388.838 63.102 395.224 72.119 396.409 81.6894C399.051 103.104 375.684 122.106 380.108 143.235C381.289 148.426 383.896 153.171 387.628 156.921C378.514 165.289 370.756 173.407 370.756 173.407V173.891H369.315L369.46 175.62H369.315L370.108 185.001L369.315 198.66C369.315 198.66 369.315 198.807 369.315 199.084V199.153V199.525C369.315 199.525 369.315 199.672 369.315 199.948H369.366C369.631 204.954 370.679 222.953 371.924 226.749C373.39 231.149 374.132 252.883 374.132 252.883C374.132 252.883 375.752 283.6 377.235 287.663C378.719 291.727 376.613 306.484 384.311 309.968C386.563 311.72 389.23 312.841 392.044 313.219C391.651 316.452 391.899 318.795 393.169 319.53C393.713 319.854 394.329 320.032 394.959 320.048C394.437 320.834 393.973 321.658 393.57 322.512C390.514 322.189 387.512 321.471 384.635 320.377C376.366 316.919 348.923 309.138 340.952 314.611C332.98 320.083 313.799 325.045 322.656 347.074C331.514 369.102 335.64 369.655 335.64 369.655C338.367 371.662 340.759 374.099 342.725 376.874C345.385 380.929 370.168 390.205 376.366 390.205C379 390.164 381.634 390.297 384.252 390.603C384.252 390.603 377.525 396.585 378.42 400.061C379.315 403.536 376.374 431.357 376.374 431.357C376.374 431.357 383.194 438.325 386.11 429.187L386.212 429.325C386.758 430.077 389.708 433.475 395.258 429.187C397.529 427.439 399.942 425.889 402.47 424.553L429.342 420.697C432.143 420.519 434.952 420.499 437.756 420.636C442.019 420.991 446.205 418.432 448.839 416.452C454.406 418.596 460.664 420.939 463.639 421.795C469.675 423.524 497.416 431.071 503.904 428.711C505.252 428.167 506.452 427.301 507.399 426.187L513.589 426.385L510.69 426.973C510.69 426.973 516.334 427.069 524.006 427.172L523.683 427.362L533.308 427.276C547.391 427.406 563.214 427.449 565.294 426.973C568.551 426.239 585.474 426.757 590.461 426.973H591.851C591.851 426.973 610.444 423.213 602.772 404.081C596.872 389.384 578.739 385.113 570.691 383.937C572.959 383.479 574.911 383.124 576.207 382.917C581.825 382.052 592.737 376.865 593.624 375.093C594.511 373.321 603.658 368.177 606.02 365.246C608.381 362.315 615.125 341.541 609.524 326.178ZM455.514 369.171L454.602 369.474L453.988 369.681L452.812 370.857C451.874 370.217 450.868 369.543 449.82 368.851C451.669 368.964 453.571 369.076 455.514 369.171Z" fill="url(#paint0_linear)"/>
<path d="M509.872 278.015C509.872 278.015 522.915 312.596 530.332 309.138C537.749 305.68 535.737 290.983 537.152 286.954C538.568 282.926 540.136 252.373 540.136 252.373C540.136 252.373 540.852 230.76 542.268 226.385C543.581 222.365 544.646 202.092 544.825 198.902C544.825 198.625 544.825 198.478 544.825 198.478L543.419 173.407L535.456 171.393L516.99 178.309L514.433 193.118L513.435 198.902L513.009 201.366L509.872 278.015Z" fill="#BE6F72"/>
<path opacity="0.1" d="M514.168 272.223C514.168 272.223 526.615 282.554 530.366 283.462C534.117 284.369 536.419 292.427 536.419 292.427" fill="black"/>
<path d="M407.867 279.528C407.867 279.528 394.823 314.109 387.406 310.651C379.989 307.193 382.001 292.496 380.586 288.467C379.17 284.439 377.602 253.886 377.602 253.886C377.602 253.886 376.886 232.273 375.47 227.898C374.158 223.878 373.092 203.605 372.913 200.415C372.913 200.138 372.913 199.991 372.913 199.991L374.328 174.92L382.291 172.906L400.756 179.822L403.314 194.631L404.312 200.415L404.738 202.879L407.867 279.528Z" fill="#BE6F72"/>
<path d="M492.804 94.467H463.69V140.486H492.804V94.467Z" fill="#3E373A"/>
<path opacity="0.1" d="M492.804 94.467H463.69V140.486H492.804V94.467Z" fill="black"/>
<path d="M402.751 313.971C402.751 313.971 392.802 325.063 396.494 327.077C400.185 329.091 424.065 366.845 424.065 366.845C424.065 366.845 502.497 376.64 517.289 361.943C532.08 347.247 531.782 320.991 531.782 320.991C531.782 320.991 519.897 323.584 518.601 322.175C517.306 320.766 510.187 313.971 510.187 313.971C510.187 313.971 409.572 307.781 402.751 313.971Z" fill="#4B4B5B"/>
<path opacity="0.02" d="M402.751 313.971C402.751 313.971 392.802 325.063 396.494 327.077C400.185 329.091 424.065 366.845 424.065 366.845C424.065 366.845 502.497 376.64 517.289 361.943C532.08 347.247 531.782 320.991 531.782 320.991C531.782 320.991 519.897 323.584 518.601 322.175C517.306 320.766 510.187 313.971 510.187 313.971C510.187 313.971 409.572 307.781 402.751 313.971Z" fill="black"/>
<path d="M543.947 173.77L518.371 194.519L510.639 195.089L507.8 195.297L460.118 198.842L410.671 195.176L403.314 194.631L393.936 193.94L374.328 174.92C374.328 174.92 388.207 159.843 400.364 149.667C405.156 145.647 409.682 142.396 412.982 141.117L413.544 140.918C415.62 140.097 417.472 138.788 418.949 137.097C428.549 127.06 437.424 102.291 437.424 102.291C437.424 102.291 479.769 80.1072 474.654 109.207C469.538 138.307 493.691 131.114 493.691 131.114L501.653 134.797L504.799 136.258L512.821 139.984L530.921 148.405C545.124 155.036 543.947 173.77 543.947 173.77Z" fill="#BE6F72"/>
<path opacity="0.1" d="M458.132 125.988C479.164 125.988 496.214 108.698 496.214 87.3693C496.214 66.0408 479.164 48.7508 458.132 48.7508C437.099 48.7508 420.049 66.0408 420.049 87.3693C420.049 108.698 437.099 125.988 458.132 125.988Z" fill="black"/>
<path opacity="0.1" d="M544.007 201.28H372.913C372.913 201.003 372.913 200.856 372.913 200.856L374.328 175.785C374.328 175.785 388.207 160.707 400.364 150.532L507.783 146.209L512.779 140.866L530.878 149.287C545.089 155.909 543.947 174.643 543.947 174.643C543.947 174.643 545.891 196.352 544.007 201.28Z" fill="black"/>
<path d="M544.007 200.415H372.913C372.913 200.138 372.913 199.991 372.913 199.991L374.328 174.92C374.328 174.92 388.207 159.843 400.364 149.667L507.783 145.345L512.779 140.002L530.878 148.422C545.089 155.045 543.947 173.779 543.947 173.779C543.947 173.779 545.891 195.487 544.007 200.415Z" fill="#E7C7CA"/>
<path opacity="0.1" d="M430.706 130.112C430.706 130.112 457.697 164.987 493.648 129.394C529.599 93.8013 497.629 208.784 497.629 208.784L420.049 218.121L430.706 130.112Z" fill="black"/>
<path d="M430.706 131.841C430.706 131.841 457.697 166.716 493.648 131.123C529.599 95.5304 497.629 210.513 497.629 210.513L420.049 219.85L430.706 131.841Z" fill="#E7C7CA"/>
<path opacity="0.1" d="M504.756 137.961L507.612 182.13L510.673 196.827L513.009 208.066C513.009 208.066 518.977 294.519 517.271 298.842C515.566 303.164 518.124 306.622 518.482 308.922C518.84 311.222 518.124 316.997 518.405 319.59C518.687 322.184 518.405 323.334 511.875 322.409C505.345 321.484 496.24 319.876 496.24 319.876C496.24 319.876 473.221 321.605 465.267 318.726C457.313 315.847 442.249 315.838 442.249 315.838C442.249 315.838 419.512 316.417 412.129 315.553C404.746 314.688 400.756 324.777 395.931 321.89C391.106 319.002 401.609 291.061 405.019 282.986C408.429 274.911 400.475 254.457 400.475 254.457L410.706 196.905L412.982 183.859V142.846L413.544 142.647C415.62 141.827 417.472 140.517 418.949 138.826L421.507 180.099L501.645 182.986V136.535" fill="black"/>
<path d="M504.756 136.232L507.612 180.401L510.673 195.098L513.009 206.337C513.009 206.337 518.977 292.79 517.271 297.112C515.566 301.435 518.124 304.893 518.482 307.193C518.84 309.493 518.124 315.268 518.405 317.861C518.687 320.455 518.405 321.605 511.875 320.68C505.345 319.754 496.24 318.146 496.24 318.146C496.24 318.146 473.221 319.876 465.267 316.997C457.313 314.118 442.249 314.109 442.249 314.109C442.249 314.109 419.512 314.688 412.129 313.824C404.746 312.959 400.756 323.048 395.931 320.161C391.106 317.273 401.609 289.332 405.019 281.257C408.429 273.182 400.475 252.728 400.475 252.728L410.706 195.176L412.982 182.13V141.117L413.544 140.918C415.62 140.097 417.472 138.788 418.949 137.097L421.507 178.37L501.645 181.257V134.806" fill="#E7C7CA"/>
<path opacity="0.1" d="M513.972 44.0564C513.486 42.2495 512.813 40.3735 511.415 39.1631C510.08 38.191 508.538 37.5513 506.913 37.2958C503.025 36.2588 499.071 35.4905 495.08 34.9961C494.51 33.0764 493.647 31.2591 492.523 29.6101C484.168 17.645 471.806 6.36294 457.262 3.81258C449.649 2.47256 440.825 3.67425 435.949 9.76053C433.272 13.1063 432.121 17.5413 429.419 20.8265C424.21 27.2067 414.806 27.9934 408.242 32.9299C404.738 35.5235 402.197 39.2842 399.716 42.9325C397.031 46.8834 394.269 50.9985 393.416 55.7189C391.711 65.1509 397.858 74.142 398.992 83.6604C401.549 104.954 379.043 123.844 383.297 144.852C385.778 157.102 396.937 165.73 408.48 170.105C412.547 171.652 417.193 173.191 419.094 177.151C419.947 178.88 420.092 180.877 420.893 182.623C423.587 188.45 432.445 188.675 437.202 184.43C441.959 180.185 443.46 173.321 444.022 166.915C446.307 138.938 435.258 111.299 436.546 83.2541C436.929 74.7731 439.282 65.1509 446.776 61.3124C456.861 56.1252 468.993 64.7705 480.093 63.1192C485.345 76.0797 486.461 90.3837 483.281 104.02C481.517 111.481 478.464 118.717 478.243 126.411C477.91 138.126 484.142 148.829 489.53 159.186C490.686 161.122 491.46 163.269 491.807 165.505C491.891 167.774 491.475 170.034 490.587 172.119C487.544 180.427 482.292 188.139 481.696 196.983C481.521 198.015 481.75 199.076 482.335 199.94C482.936 200.516 483.711 200.869 484.534 200.942C493.742 202.542 501.704 194.268 506.197 185.96C511.206 176.784 514.125 166.586 514.74 156.117C515.669 138.515 509.445 121.198 509.829 103.579C510.272 83.548 519.198 63.3786 513.972 44.0564Z" fill="black"/>
<path d="M514.825 43.1918C514.339 41.385 513.665 39.509 512.267 38.2986C510.932 37.3265 509.39 36.6867 507.766 36.4312C503.877 35.3943 499.924 34.626 495.933 34.1316C495.363 32.2119 494.5 30.3946 493.375 28.7456C485.02 16.7805 472.659 5.4984 458.115 2.94805C450.502 1.60803 441.678 2.80972 436.801 8.896C434.124 12.2417 432.974 16.6768 430.271 19.962C425.062 26.3422 415.659 27.1289 409.094 32.0654C405.59 34.659 403.05 38.4197 400.569 42.068C397.883 46.0189 395.121 50.134 394.269 54.8543C392.564 64.2863 398.71 73.2774 399.844 82.7959C402.402 104.089 379.895 122.979 384.149 143.987C386.63 156.238 397.79 164.866 409.333 169.24C413.399 170.788 418.046 172.326 419.947 176.286C420.799 178.015 420.944 180.012 421.746 181.758C424.44 187.585 433.297 187.81 438.055 183.565C442.812 179.321 444.312 172.456 444.875 166.05C447.16 138.074 436.111 110.435 437.398 82.3896C437.782 73.9085 440.135 64.2863 447.629 60.4478C457.714 55.2607 469.845 63.9059 480.945 62.2547C486.198 75.2152 487.313 89.5191 484.134 103.156C482.369 110.616 479.317 117.853 479.095 125.547C478.763 137.261 484.995 147.964 490.383 158.321C491.539 160.258 492.312 162.404 492.659 164.641C492.744 166.91 492.327 169.17 491.44 171.254C488.396 179.563 483.145 187.274 482.548 196.118C482.373 197.151 482.603 198.212 483.187 199.075C483.788 199.651 484.563 200.005 485.387 200.078C494.594 201.677 502.557 193.404 507.05 185.096C512.059 175.919 514.978 165.722 515.592 155.252C516.521 137.65 510.298 120.334 510.681 102.715C511.125 82.6835 520.051 62.5141 514.825 43.1918Z" fill="#3E373A"/>
<path d="M495.992 425.979L529.812 427.077L524.961 401.643L499.053 404.141L495.992 425.979Z" fill="#C3C7D9"/>
<path d="M600.785 365.696C598.509 368.574 589.702 373.762 588.85 375.491C587.997 377.22 577.486 382.407 572.081 383.271C566.676 384.136 549.633 387.888 546.505 389.902C544.263 391.355 526.266 395.954 514.441 398.504C511.238 399.273 507.997 399.864 504.731 400.277C499.616 400.562 443.639 381.257 443.639 381.257L454.432 370.018L455.028 369.811C458.08 368.765 472.181 363.932 480.007 361.632C488.823 359.039 499.053 348.379 499.053 348.379C499.053 348.379 514.109 343.192 516.104 342.613C518.098 342.033 510.988 322.443 510.988 322.443C510.988 322.443 543.666 317.844 556.454 313.945C569.242 310.046 598.799 311.49 604.195 326.766C609.592 342.042 603.096 362.817 600.785 365.696Z" fill="#4B4B5B"/>
<path d="M451.874 414.394C451.874 414.394 445.344 421.311 438.805 420.74C432.266 420.17 409.401 422.469 409.401 422.469C405.258 424.145 401.377 426.426 397.883 429.238C392.538 433.509 389.699 430.103 389.171 429.377L389.077 429.238C386.229 438.325 379.699 431.4 379.699 431.4C379.699 431.4 382.538 403.735 381.668 400.277C380.799 396.819 387.287 390.879 387.287 390.879L394.959 388.899L414.397 383.851L442.249 393.646L451.874 414.394Z" fill="#E7C7CA"/>
<path opacity="0.1" d="M394.925 388.9L389.171 429.377L389.077 429.238C386.229 438.325 379.699 431.4 379.699 431.4C379.699 431.4 382.538 403.735 381.668 400.277C380.799 396.819 387.287 390.879 387.287 390.879L394.925 388.9Z" fill="black"/>
<path opacity="0.1" d="M435.147 273.762C435.147 273.762 450.203 278.949 463.281 273.762H435.147Z" fill="black"/>
<path opacity="0.1" d="M486.546 283.565C486.546 283.565 492.795 286.73 497.629 283.565H486.546Z" fill="black"/>
<path opacity="0.1" d="M486.546 291.069C486.546 291.069 497.058 292.496 499.053 289.617L486.546 291.069Z" fill="black"/>
<path opacity="0.1" d="M483.136 307.193C483.136 307.193 502.881 304.599 507.783 301.141L483.136 307.193Z" fill="black"/>
<path opacity="0.1" d="M422.888 301.141C422.888 301.141 433.971 307.478 442.215 307.193L422.888 301.141Z" fill="black"/>
<path opacity="0.1" d="M514.433 398.504C511.23 399.273 507.988 399.864 504.722 400.277C499.607 400.562 443.63 381.257 443.63 381.257L454.423 370.018L455.02 369.811C456.725 371.03 458.123 372.076 459.121 372.871C463.818 376.623 468.353 371.721 470.059 371.721C471.764 371.721 486.538 384.11 486.538 384.11C486.538 384.11 500.178 387.283 502.455 390.162C504.731 393.041 512.685 392.47 514.1 394.484C514.526 395.107 514.578 396.637 514.433 398.504Z" fill="black"/>
<path d="M409.401 323.619C409.401 323.619 395.607 324.423 387.653 321.025C379.699 317.628 353.271 309.787 345.598 315.294C337.925 320.801 319.451 325.668 327.976 347.575C336.501 369.482 340.483 370.053 340.483 370.053C343.12 372.059 345.423 374.482 347.303 377.228C349.861 381.266 373.731 390.482 379.699 390.482C385.667 390.482 396.178 390.482 410.953 400.856C425.727 411.23 439.086 412.389 439.086 412.389C439.086 412.389 457.842 420.17 463.682 421.899C469.521 423.628 496.206 431.114 502.463 428.815C508.721 426.515 512.693 412.095 512.693 412.095C512.693 412.095 515.532 399.127 514.109 397.113C512.685 395.098 504.731 395.669 502.463 392.79C500.195 389.911 486.546 386.738 486.546 386.738C486.546 386.738 471.806 374.341 470.101 374.341C468.396 374.341 463.861 379.234 459.163 375.491C449.806 368.462 439.975 362.107 429.742 356.471C418.949 350.705 409.401 323.619 409.401 323.619Z" fill="#4B4B5B"/>
<path opacity="0.1" d="M381.668 331.979C384.124 331.47 386.663 331.543 389.087 332.192C391.51 332.842 393.754 334.05 395.641 335.722C402.462 341.489 425.412 353.065 425.412 353.065" fill="black"/>
<path opacity="0.1" d="M552.191 331.616C552.191 331.616 521.781 336.284 516.104 342.621L552.191 331.616Z" fill="black"/>
<path d="M587.145 427.077H585.806C580.998 426.904 564.706 426.385 561.569 427.077C557.877 427.942 508.993 427.077 508.993 427.077L518.55 425.063C518.55 425.063 515.004 412.458 517.254 411.412C517.254 411.412 504.466 402.87 514.109 397.104C523.751 391.337 534.143 393.767 534.143 393.767L558.346 385.45L562.993 383.851C562.993 383.851 590.273 385.294 597.656 404.314C605.039 423.334 587.145 427.077 587.145 427.077Z" fill="#E7C7CA"/>
<path opacity="0.1" d="M587.145 427.077H585.806C593.743 420.438 611.698 400.225 558.346 385.493L562.993 383.894C562.993 383.894 590.273 385.338 597.656 404.357C605.039 423.377 587.145 427.077 587.145 427.077Z" fill="black"/>
<path d="M536.99 404.668C537.814 404.668 538.482 403.991 538.482 403.156C538.482 402.32 537.814 401.643 536.99 401.643C536.167 401.643 535.499 402.32 535.499 403.156C535.499 403.991 536.167 404.668 536.99 404.668Z" fill="#4B4B5B"/>
<path d="M528.32 407.167C529.144 407.167 529.812 406.49 529.812 405.654C529.812 404.819 529.144 404.141 528.32 404.141C527.496 404.141 526.828 404.819 526.828 405.654C526.828 406.49 527.496 407.167 528.32 407.167Z" fill="#4B4B5B"/>
<g opacity="0.1">
<path opacity="0.1" d="M486.077 85.9432C486.408 76.4341 484.74 66.9625 481.184 58.1573C470.101 59.8345 457.961 51.1632 447.867 56.3504C440.399 60.1889 438.055 69.8111 437.637 78.2922C437.534 80.5313 437.517 82.7704 437.56 85.0096C437.56 84.2142 437.56 83.4102 437.637 82.6148C438.029 74.1338 440.373 64.5116 447.867 60.6731C457.961 55.4859 470.084 64.1312 481.184 62.4799C484.196 69.9383 485.853 77.8871 486.077 85.9432Z" fill="black"/>
<path opacity="0.1" d="M400.194 84.3607C400.34 82.4769 400.303 80.5831 400.083 78.7067C399.179 71.0988 395.079 63.8281 394.337 56.4105C393.382 65.3584 399 73.9518 400.083 83.0293C400.194 83.4962 400.194 83.9111 400.194 84.3607Z" fill="black"/>
<path opacity="0.1" d="M445.114 161.944C444.585 168.358 443.093 175.214 438.293 179.467C433.494 183.721 424.653 183.488 421.984 177.661C421.132 175.932 421.004 173.917 420.177 172.188C418.284 168.229 413.63 166.69 409.563 165.142C398.011 160.759 386.869 152.174 384.388 139.889C384.166 138.776 384.015 137.65 383.936 136.518C383.726 139.091 383.879 141.682 384.388 144.212C386.869 156.462 398.028 165.082 409.563 169.465C413.63 171.012 418.284 172.551 420.177 176.511C421.03 178.24 421.175 180.237 421.984 181.983C424.67 187.81 433.528 188.035 438.293 183.79C443.059 179.545 444.542 172.681 445.114 166.266C445.373 162.89 445.461 159.502 445.378 156.117C445.378 158.079 445.267 160.016 445.114 161.944Z" fill="black"/>
<path opacity="0.1" d="M510.963 98.6168C510.963 99.8704 510.963 101.115 510.963 102.36C511.44 86.28 517.254 70.1133 516.683 54.3702C516.24 68.9289 511.287 83.8161 510.963 98.6168Z" fill="black"/>
<path opacity="0.1" d="M492.667 163.664C492.877 162.638 492.943 161.587 492.864 160.543C492.52 158.306 491.747 156.158 490.587 154.223C485.66 144.713 480.042 134.979 479.377 124.423C479.377 124.873 479.317 125.287 479.308 125.772C478.967 137.477 485.199 148.189 490.587 158.546C491.503 160.15 492.203 161.871 492.667 163.664Z" fill="black"/>
<path opacity="0.1" d="M515.865 151.154C515.228 161.628 512.289 171.825 507.263 180.998C502.761 189.306 494.807 197.579 485.592 195.98C484.766 195.908 483.99 195.551 483.392 194.968C483.219 194.77 483.083 194.542 482.991 194.294C482.889 194.968 482.804 195.651 482.753 196.343C482.576 197.373 482.806 198.431 483.392 199.291C483.99 199.873 484.766 200.23 485.592 200.303C494.807 201.902 502.761 193.628 507.263 185.32C512.289 176.148 515.228 165.951 515.865 155.477C515.967 153.454 515.976 151.439 515.916 149.425C515.899 150.004 515.899 150.575 515.865 151.154Z" fill="black"/>
</g>
<path opacity="0.1" d="M517.254 411.412C517.254 411.412 538.832 420.593 553.061 400.277" stroke="black" stroke-miterlimit="10"/>
<path opacity="0.1" d="M521.5 427.457C521.5 427.457 539.122 415.838 561.569 427.077" stroke="black" stroke-miterlimit="10"/>
<path opacity="0.1" d="M403.544 424.821C403.544 424.821 410.944 407.893 430.706 420.801" stroke="black" stroke-miterlimit="10"/>
<path opacity="0.1" d="M379.554 174.488L394.644 160.655C394.644 160.655 453.153 156.765 455.574 176.934C455.574 176.934 476.316 153.022 519.94 158.347L538.397 173.252L487.382 195.954L437.807 213.392L401.294 196.819L379.554 174.488Z" fill="black"/>
<path d="M379.554 175.352L394.644 161.52C394.644 161.52 453.153 157.629 455.574 177.799C455.574 177.799 476.316 153.886 519.94 159.212L538.397 174.116L487.382 196.819L437.807 214.256L401.294 197.683L379.554 175.352Z" fill="#D5D6DB"/>
<path opacity="0.1" d="M372.879 177.081L379.554 258.062L450.314 261.667L447.245 181.032L447.185 179.675L372.879 177.081Z" fill="black"/>
<path d="M372.879 175.352L379.554 256.333L450.314 259.938L447.245 179.303L447.185 177.946L372.879 175.352Z" fill="#F9A826"/>
<path opacity="0.1" d="M541.637 175.352L468.643 186.453V267.796L539.974 257.344L541.637 175.352Z" fill="black"/>
<path d="M541.637 173.623L468.643 184.724V266.067L539.974 255.615L541.637 173.623Z" fill="#F9A826"/>
<path opacity="0.3" d="M524.424 193.473L484.995 197.917L485.856 211.541L524.399 207.271L524.424 193.473Z" fill="white"/>
<path d="M383.39 299.697L387.406 310.651C387.406 310.651 393.374 315.838 399.904 313.245C406.434 310.651 412.129 309.363 414.968 306.838C417.807 304.314 421.788 291.631 421.788 291.631C421.788 291.631 425.77 277.799 429.742 274.341C433.715 270.883 444.235 223.239 429.742 227.898C415.249 232.558 404.167 275.785 404.167 275.785C404.167 275.785 401.609 278.949 397.918 279.243C394.226 279.537 386.835 278.663 385.411 281.836C383.987 285.009 379.128 293.36 383.39 299.697Z" fill="#BE6F72"/>
<path opacity="0.1" d="M468.643 186.444C464.906 187.298 461.024 187.254 457.307 186.314C453.589 185.374 450.141 183.565 447.236 181.032L450.314 261.658C450.314 261.658 457.56 269.612 468.643 267.796V186.444Z" fill="black"/>
<path d="M468.643 184.715C464.906 185.569 461.024 185.525 457.307 184.585C453.589 183.645 450.141 181.836 447.236 179.303L450.314 259.929C450.314 259.929 457.56 267.883 468.643 266.067V184.715Z" fill="#F9A826"/>
<path opacity="0.1" d="M468.643 184.715C464.906 185.569 461.024 185.525 457.307 184.585C453.589 183.645 450.141 181.836 447.236 179.303L450.314 259.929C450.314 259.929 457.56 267.883 468.643 266.067V184.715Z" fill="black"/>
<path opacity="0.1" d="M470.348 175.629C470.348 175.629 500.042 166.422 507.783 167.719L470.348 175.629Z" fill="black"/>
<path opacity="0.1" d="M437.134 171.609C437.134 171.609 408.353 164.693 403.544 166.655L437.134 171.609Z" fill="black"/>
<path opacity="0.1" d="M489.07 176.779C489.07 176.779 508.925 169.396 516.104 172.906L489.07 176.779Z" fill="black"/>
<path opacity="0.1" d="M479.07 361.987C482.146 359.644 485.422 357.581 488.857 355.823C493.972 353.324 503.35 346.84 503.35 346.84" fill="black"/>
<path opacity="0.1" d="M403.544 273.762C403.544 273.762 391.089 284.093 387.346 285C383.604 285.908 381.293 293.966 381.293 293.966" fill="black"/>
<path d="M534.314 298.159L530.341 309.138C530.341 309.138 524.373 314.325 517.834 311.732C511.295 309.138 505.617 307.85 502.77 305.326C499.923 302.801 495.95 290.118 495.95 290.118C495.95 290.118 491.977 276.286 487.996 272.828C484.014 269.37 473.503 221.726 487.996 226.385C502.489 231.045 513.572 274.272 513.572 274.272C513.572 274.272 516.129 277.436 519.821 277.73C523.512 278.024 530.903 277.151 532.327 280.323C533.751 283.496 538.576 291.848 534.314 298.159Z" fill="#BE6F72"/>
<path opacity="0.1" d="M527.348 277.963C527.348 277.963 535.49 283.271 535.456 289.617L527.348 277.963Z" fill="black"/>
<path d="M458.268 124.094C479.3 124.094 496.35 106.804 496.35 85.4759C496.35 64.1475 479.3 46.8575 458.268 46.8575C437.236 46.8575 420.186 64.1475 420.186 85.4759C420.186 106.804 437.236 124.094 458.268 124.094Z" fill="#BE6F72"/>
<path d="M434.355 75.1102C438.975 74.3754 443.025 71.6521 447.441 70.0873C457.322 66.5687 468.251 68.9807 478.251 72.1535C482.088 73.3725 485.984 74.7471 490.008 74.7471C494.032 74.7471 498.303 73.0786 500.357 69.5599C502.25 66.3266 501.883 62.125 500.289 58.7274C498.695 55.3298 496.027 52.5979 493.333 50.0216C484.466 41.5319 473.469 33.5956 461.303 34.4601C456.41 34.8145 451.729 36.5868 447.228 38.5493C441.56 41.0262 436.043 43.8438 430.706 46.9871C426.605 49.3991 419.009 52.6238 416.648 57.0329C411.277 66.9664 426 76.4416 434.355 75.1102Z" fill="#3E373A"/>
<path opacity="0.1" d="M500.357 65.9289C498.303 69.4476 494.032 71.1161 490.008 71.1161C485.984 71.1161 482.088 69.7934 478.243 68.5744C468.243 65.4016 457.322 62.9809 447.432 66.5082C443.025 68.073 438.967 70.8308 434.346 71.5224C427.611 72.5945 416.767 66.6465 415.59 59.0819C414.269 67.8223 426.844 75.3091 434.346 74.116C438.967 73.3812 443.025 70.6579 447.432 69.1018C457.322 65.5745 468.243 67.9952 478.243 71.168C482.088 72.387 485.975 73.7616 490.008 73.7097C494.04 73.6578 498.303 72.0498 500.357 68.5225C501.422 66.6036 501.841 64.385 501.551 62.2028C501.418 63.5166 501.011 64.7867 500.357 65.9289Z" fill="black"/>
<path d="M809.407 534.46C809.407 534.46 814.463 541.16 807.071 551.284C799.68 561.408 793.593 569.949 796.048 576.26C796.048 576.26 807.199 557.465 816.27 557.197C825.341 556.929 819.373 545.76 809.407 534.46Z" fill="#F9A826"/>
<path opacity="0.1" d="M809.407 534.46C809.848 535.107 810.195 535.815 810.439 536.561C819.288 547.108 824.011 556.955 815.494 557.197C807.566 557.431 798.06 571.808 795.784 575.43C795.857 575.723 795.945 576.012 796.048 576.295C796.048 576.295 807.199 557.5 816.27 557.232C825.341 556.964 819.373 545.76 809.407 534.46Z" fill="black"/>
<path d="M818.785 543.002C818.785 545.362 818.521 547.273 818.205 547.273C817.89 547.273 817.617 545.362 817.617 543.002C817.617 540.642 817.941 541.757 818.265 541.757C818.589 541.757 818.785 540.642 818.785 543.002Z" fill="#FFD037"/>
<path d="M822.016 545.82C819.979 546.944 818.197 547.627 818.043 547.342C817.89 547.056 819.416 545.907 821.454 544.748C823.491 543.59 822.69 544.437 822.843 544.748C822.997 545.059 824.062 544.688 822.016 545.82Z" fill="#FFD037"/>
<path d="M782.689 534.46C782.689 534.46 777.634 541.16 785.025 551.284C792.416 561.408 798.504 569.949 796.04 576.26C796.04 576.26 784.897 557.465 775.818 557.197C766.738 556.929 772.749 545.76 782.689 534.46Z" fill="#F9A826"/>
<path opacity="0.1" d="M782.689 534.46C782.249 535.107 781.902 535.815 781.658 536.561C772.808 547.108 768.085 556.955 776.602 557.197C784.522 557.431 794.036 571.808 796.312 575.43C796.241 575.724 796.15 576.013 796.04 576.295C796.04 576.295 784.897 557.5 775.818 557.232C766.738 556.964 772.749 545.76 782.689 534.46Z" fill="black"/>
<path d="M773.294 543.002C773.294 545.362 773.55 547.273 773.874 547.273C774.198 547.273 774.462 545.362 774.462 543.002C774.462 540.642 774.13 541.757 773.814 541.757C773.499 541.757 773.294 540.642 773.294 543.002Z" fill="#FFD037"/>
<path d="M770.072 545.82C772.109 546.944 773.891 547.627 774.044 547.342C774.198 547.056 772.672 545.907 770.634 544.748C768.597 543.59 769.398 544.437 769.245 544.748C769.091 545.059 768.026 544.688 770.072 545.82Z" fill="#FFD037"/>
<path opacity="0.1" d="M796.048 627.544C825.24 627.544 848.905 623.863 848.905 619.322C848.905 614.782 825.24 611.101 796.048 611.101C766.856 611.101 743.192 614.782 743.192 619.322C743.192 623.863 766.856 627.544 796.048 627.544Z" fill="#F9A826"/>
<path d="M823.252 567.226L822.997 569.318L822.639 572.275L822.494 573.511L822.136 576.468L821.982 577.704L821.633 580.652L817.583 614.282C817.225 617.282 812.391 619.625 806.551 619.625H785.537C779.697 619.625 774.871 617.282 774.505 614.282L770.455 580.652L770.097 577.704L769.952 576.468L769.594 573.511L769.441 572.275L769.091 569.318L768.836 567.226C768.639 565.497 771.248 564.096 774.556 564.096H817.54C820.84 564.096 823.457 565.523 823.252 567.226Z" fill="#65617D"/>
<path d="M822.997 569.318L822.647 572.275H769.449L769.091 569.318H822.997Z" fill="#9D9CB5"/>
<path d="M822.494 573.511L822.144 576.468H769.952L769.594 573.511H822.494Z" fill="#9D9CB5"/>
<path d="M821.991 577.704L821.633 580.661H770.455L770.106 577.704H821.991Z" fill="#9D9CB5"/>
</g>
<defs>
<linearGradient id="paint0_linear" x1="466.026" y1="433.924" x2="466.026" y2="4.35779e-05" gradientUnits="userSpaceOnUse">
<stop stop-color="#808080" stop-opacity="0.25"/>
<stop offset="0.54" stop-color="#808080" stop-opacity="0.12"/>
<stop offset="1" stop-color="#808080" stop-opacity="0.1"/>
</linearGradient>
<clipPath id="clip0">
<rect width="872" height="703" fill="white"/>
</clipPath>
</defs>
</svg>
