<svg width="614" height="494" viewBox="0 0 614 494" fill="none" xmlns="http://www.w3.org/2000/svg">
<g clip-path="url(#clip0)">
<path d="M614.21 231.374L242.177 0L120.456 202.233L492.49 433.607L614.21 231.374Z" fill="#F2F2F2"/>
<path d="M454.226 72.1431H160.235V236.045H367.654L369.232 272.606L403.809 250.154L425.538 236.045H454.226V72.1431Z" fill="#3F3D56"/>
<path d="M0 493.309H262.079" stroke="#3F3D56" stroke-width="2" stroke-miterlimit="10"/>
<path d="M307.23 203.818L299.561 196.771C272.325 171.301 254.345 154.77 254.345 134.177C254.345 117.376 267.037 104.37 283.432 104.37C287.972 104.395 292.452 105.426 296.562 107.391C300.671 109.356 304.312 112.209 307.23 115.752C310.149 112.209 313.789 109.356 317.899 107.391C322.009 105.426 326.489 104.395 331.029 104.37C347.424 104.37 360.116 117.376 360.116 134.177C360.116 154.77 342.135 171.301 314.9 196.771L307.23 203.818Z" fill="#F9A826"/>
<path d="M51.0783 260.298C50.5726 256.774 51.0669 253.176 52.5029 249.928C53.9389 246.681 56.2568 243.919 59.1831 241.969C59.7547 223.974 71.765 209.6 86.5001 209.6C101.6 209.6 113.841 224.693 113.841 243.311C113.841 261.929 101.6 277.022 86.5001 277.022C85.0771 277.022 83.6572 276.886 82.2589 276.618C81.7585 279.499 80.6009 282.22 78.8793 284.562C77.1577 286.904 74.9202 288.801 72.3471 290.102C69.7739 291.402 66.9369 292.068 64.0645 292.048C61.1921 292.027 58.3647 291.32 55.8098 289.982C53.2549 288.645 51.044 286.716 49.3552 284.349C47.6663 281.982 46.5466 279.245 46.0863 276.357C45.626 273.469 45.8379 270.511 46.7049 267.722C47.572 264.933 49.07 262.39 51.0784 260.298H51.0783Z" fill="#2F2E41"/>
<path d="M103.331 250.332C103.196 251.434 103.318 252.553 103.687 253.599C104.316 255.082 105.861 256.414 105.408 257.963C105.115 258.962 104.081 259.518 103.112 259.852C98.5228 261.435 93.5134 260.492 88.673 260.706C87.0588 260.85 85.4383 260.907 83.8181 260.877C82.1854 260.843 80.6055 260.283 79.3055 259.276C81.8259 258.027 84.2054 256.503 86.4018 254.73C86.9343 254.328 87.4152 253.861 87.8332 253.337C88.865 251.953 89.021 250.106 89.0767 248.369C89.1318 246.649 89.1269 244.928 89.062 243.207C92.526 243.169 95.9902 243.154 99.4545 243.16C100.565 243.162 103.962 242.887 104.349 244.106C104.544 244.718 103.799 246.501 103.686 247.187C103.516 248.229 103.397 249.278 103.331 250.332Z" fill="#FBBEBE"/>
<path opacity="0.05" d="M103.331 250.332C103.196 251.434 103.318 252.553 103.687 253.599C104.316 255.082 105.861 256.414 105.408 257.963C105.115 258.962 104.081 259.518 103.112 259.852C98.5228 261.435 93.5134 260.492 88.673 260.706C87.0588 260.85 85.4383 260.907 83.8181 260.877C82.1854 260.843 80.6055 260.283 79.3055 259.276C81.8259 258.027 84.2054 256.503 86.4018 254.73C86.9343 254.328 87.4152 253.861 87.8332 253.337C88.865 251.953 89.021 250.106 89.0767 248.369C89.1318 246.649 89.1269 244.928 89.062 243.207C92.526 243.169 95.9902 243.154 99.4545 243.16C100.565 243.162 103.962 242.887 104.349 244.106C104.544 244.718 103.799 246.501 103.686 247.187C103.516 248.229 103.397 249.278 103.331 250.332Z" fill="black"/>
<path d="M120.583 314.329C121.096 318.257 120.636 322.254 119.245 325.955C111.788 325.158 104.295 324.756 96.7966 324.751C98.0934 322.99 98.9196 320.916 99.1945 318.732C99.3933 316.685 99.4064 314.624 99.2336 312.574L113.787 312.524C114.854 312.478 115.922 312.559 116.971 312.766C118.384 313.104 119.156 314.059 120.583 314.329Z" fill="#FBBEBE"/>
<path d="M124.664 322.457C125.41 323.707 126.313 324.85 127.144 326.042C128.673 328.292 130.026 330.66 131.19 333.126C132.658 336.146 133.969 339.257 135.748 342.098C136.746 343.493 137.6 344.989 138.296 346.563C138.795 348.067 139.045 349.645 139.035 351.232C139.09 353.344 138.91 355.602 137.657 357.285C137.109 358.005 136.394 358.576 135.577 358.945C134.76 359.315 133.865 359.473 132.973 359.404C132.061 359.352 131.196 358.971 130.534 358.328C129.31 357.047 129.431 354.994 129.76 353.237C129.99 352.006 130.28 350.713 129.89 349.524C129.65 348.935 129.369 348.364 129.049 347.815C128.479 346.482 128.131 345.062 128.018 343.613C127.655 340.828 127.263 337.876 125.522 335.697C124.589 334.528 123.325 333.665 122.409 332.483C121.928 331.864 121.55 331.165 121.038 330.573C120.309 329.73 119.302 329.088 118.882 328.049C118.682 327.368 118.554 326.667 118.5 325.958C118.224 324.838 117.822 323.754 117.301 322.728C115.641 318.845 115.196 314.554 114.77 310.341C116.555 310.267 118.318 309.913 119.997 309.292C119.516 309.47 124.156 321.608 124.664 322.457Z" fill="#FBBEBE"/>
<path opacity="0.05" d="M124.664 322.457C125.41 323.707 126.313 324.85 127.144 326.042C128.673 328.292 130.026 330.66 131.19 333.126C132.658 336.146 133.969 339.257 135.748 342.098C136.746 343.493 137.6 344.989 138.296 346.563C138.795 348.067 139.045 349.645 139.035 351.232C139.09 353.344 138.91 355.602 137.657 357.285C137.109 358.005 136.394 358.576 135.577 358.945C134.76 359.315 133.865 359.473 132.973 359.404C132.061 359.352 131.196 358.971 130.534 358.328C129.31 357.047 129.431 354.994 129.76 353.237C129.99 352.006 130.28 350.713 129.89 349.524C129.65 348.935 129.369 348.364 129.049 347.815C128.479 346.482 128.131 345.062 128.018 343.613C127.655 340.828 127.263 337.876 125.522 335.697C124.589 334.528 123.325 333.665 122.409 332.483C121.928 331.864 121.55 331.165 121.038 330.573C120.309 329.73 119.302 329.088 118.882 328.049C118.682 327.368 118.554 326.667 118.5 325.958C118.224 324.838 117.822 323.754 117.301 322.728C115.641 318.845 115.196 314.554 114.77 310.341C116.555 310.267 118.318 309.913 119.997 309.292C119.516 309.47 124.156 321.608 124.664 322.457Z" fill="black"/>
<path d="M96.2131 248.807C102.968 248.807 108.444 243.23 108.444 236.349C108.444 229.469 102.968 223.891 96.2131 223.891C89.458 223.891 83.9818 229.469 83.9818 236.349C83.9818 243.23 89.458 248.807 96.2131 248.807Z" fill="#FBBEBE"/>
<path d="M120.603 363.354C122.909 366.141 123.808 369.826 124.64 373.371L127.695 386.386C129.039 391.66 130.082 397.009 130.82 402.405C131.18 405.471 131.331 408.658 130.325 411.57C129.488 413.729 128.269 415.715 126.73 417.427C123.449 421.436 119.437 424.759 114.916 427.214C112.52 428.48 109.987 429.452 107.524 430.579C103.852 432.258 100.341 434.279 96.8368 436.297L83.6476 443.892C80.8187 445.521 77.9581 447.174 75.6026 449.454C73.4144 451.577 71.7283 454.178 70.6718 457.062C70.4914 457.819 70.088 458.503 69.5155 459.02C68.7636 459.544 67.7499 459.374 66.8791 459.103C63.6813 458.02 60.9209 455.897 59.0213 453.062C57.1218 450.227 56.1882 446.835 56.3638 443.407C66.0552 439.948 75.0014 434.619 82.7131 427.712C88.5998 422.433 93.9051 416.142 101.089 412.936C104.231 411.534 108 410.464 109.468 407.306C110.031 405.838 110.293 404.268 110.235 402.692C110.366 398.355 110.494 393.974 109.683 389.714C108.997 386.113 107.655 382.681 106.646 379.16C104.625 372.11 103.947 364.745 103.278 357.432C107.971 356.862 112.693 356.578 117.419 356.581C117.834 356.527 118.253 356.641 118.587 356.897C118.798 357.168 118.924 357.497 118.949 357.841C119.291 359.743 119.379 361.875 120.603 363.354Z" fill="#FBBEBE"/>
<path opacity="0.05" d="M120.603 363.354C122.909 366.141 123.808 369.826 124.64 373.371L127.695 386.386C129.039 391.66 130.082 397.009 130.82 402.405C131.18 405.471 131.331 408.658 130.325 411.57C129.488 413.729 128.269 415.715 126.73 417.427C123.449 421.436 119.437 424.759 114.916 427.214C112.52 428.48 109.987 429.452 107.524 430.579C103.852 432.258 100.341 434.279 96.8368 436.297L83.6476 443.892C80.8187 445.521 77.9581 447.174 75.6026 449.454C73.4144 451.577 71.7283 454.178 70.6718 457.062C70.4914 457.819 70.088 458.503 69.5155 459.02C68.7636 459.544 67.7499 459.374 66.8791 459.103C63.6813 458.02 60.9209 455.897 59.0213 453.062C57.1218 450.227 56.1882 446.835 56.3638 443.407C66.0552 439.948 75.0014 434.619 82.7131 427.712C88.5998 422.433 93.9051 416.142 101.089 412.936C104.231 411.534 108 410.464 109.468 407.306C110.031 405.838 110.293 404.268 110.235 402.692C110.366 398.355 110.494 393.974 109.683 389.714C108.997 386.113 107.655 382.681 106.646 379.16C104.625 372.11 103.947 364.745 103.278 357.432C107.971 356.862 112.693 356.578 117.419 356.581C117.834 356.527 118.253 356.641 118.587 356.897C118.798 357.168 118.924 357.497 118.949 357.841C119.291 359.743 119.379 361.875 120.603 363.354Z" fill="black"/>
<path d="M51.3892 449.159C53.7563 453.436 56.1222 457.71 58.4869 461.984C59.0373 462.973 59.5877 463.97 60.041 465.011C60.8109 466.77 61.3001 468.649 62.1671 470.361C63.188 472.19 64.4186 473.89 65.8329 475.424C67.3762 477.238 68.9195 479.05 70.4627 480.859C70.9489 481.511 71.5549 482.061 72.2471 482.478C72.5961 482.68 72.9942 482.777 73.3953 482.759C73.7964 482.74 74.1841 482.606 74.5134 482.372C74.768 482.142 74.9705 481.858 75.107 481.54C75.4667 480.768 75.63 479.916 75.5819 479.063C75.5518 478.368 75.3876 477.687 75.0987 477.057C74.8099 476.427 74.4019 475.861 73.8983 475.392C73.2579 474.82 72.4413 474.355 72.1643 473.534C72.0474 473.085 72.0217 472.616 72.0888 472.156C72.4161 468.111 72.7471 464.029 73.9235 460.152C74.8012 457.254 76.1611 454.275 75.5099 451.314C74.2724 450.933 72.6644 450.673 71.9233 451.75C70.4807 453.857 70.398 453.065 68.1748 452.747C65.9767 452.439 63.8722 452.289 62.2463 450.522C60.0914 448.185 60.2748 444.557 60.5914 441.369C58.3178 441.263 56.1522 442.095 54.0908 443.15C53.3678 443.52 52.6591 443.916 51.9612 444.308C51.576 444.495 51.2273 444.752 50.9323 445.066C50.0006 446.184 50.6805 447.881 51.3892 449.159Z" fill="#2F2E41"/>
<path d="M119.697 352.964C120.458 355.496 121.057 358.076 121.49 360.688C121.696 362.124 121.802 363.574 121.907 365.023C117.078 366.189 112.066 366.249 107.104 366.303L86.4158 366.531C85.9599 363.693 85.7728 360.817 85.857 357.942C86.1452 353.216 87.8984 348.605 87.6012 343.879C93.2776 342.85 99.0158 342.214 104.777 341.975C105.825 341.866 106.885 341.968 107.895 342.274C108.832 342.624 109.613 343.304 110.514 343.741C112.539 344.722 115.58 344.244 117.3 345.836C118.873 347.291 119.136 350.945 119.697 352.964Z" fill="#2F2E41"/>
<path opacity="0.1" d="M119.697 352.964C120.458 355.496 121.057 358.076 121.49 360.688C121.696 362.124 121.802 363.574 121.907 365.023C117.078 366.189 112.066 366.249 107.104 366.303L86.4158 366.531C85.9599 363.693 85.7728 360.817 85.857 357.942C86.1452 353.216 87.8984 348.605 87.6012 343.879C93.2776 342.85 99.0158 342.214 104.777 341.975C105.825 341.866 106.885 341.968 107.895 342.274C108.832 342.624 109.613 343.304 110.514 343.741C112.539 344.722 115.58 344.244 117.3 345.836C118.873 347.291 119.136 350.945 119.697 352.964Z" fill="black"/>
<path d="M118.519 359.931C120.079 367.431 118.429 375.182 118.046 382.839C117.773 388.318 118.154 393.806 118.308 399.289C118.401 400.866 118.33 402.447 118.098 404.009C117.807 405.392 117.397 406.746 116.871 408.055L115.012 413.102C113.267 417.842 111.488 422.927 113.266 427.87C113.74 429.144 113.835 430.533 113.537 431.862C110.873 443.196 113.274 455.231 113.654 466.878C113.62 468.024 113.816 469.164 114.229 470.231C115.178 472.278 117.522 473.274 118.751 475.16C120.243 477.45 119.708 480.711 117.949 482.795C116.189 484.878 113.458 485.903 110.769 486.129C107.405 486.413 104.035 485.582 100.738 485.035L100.372 484.68C99.9564 482.345 101.216 480.189 101.608 477.804C101.794 476.39 101.876 474.965 101.855 473.539C101.878 472.264 101.929 470.987 101.845 469.714C101.735 468.42 101.555 467.133 101.305 465.859L98.4999 450.013L97.894 446.59L95.3746 432.36C94.8985 429.671 96.0641 426.663 96.368 423.948C96.9974 418.327 97.6279 412.681 97.4437 407.026C97.4239 405.475 97.2455 403.929 96.9114 402.415C96.5487 401.013 96.3364 399.576 96.2782 398.128C96.2341 396.383 95.5478 394.668 94.8804 392.955C92.6424 387.211 92.7353 380.852 92.2477 374.693C92.1951 373.386 91.9625 372.093 91.5567 370.853C90.8588 368.973 89.465 367.467 88.3657 365.799C87.2665 364.131 86.4327 362.046 87.0533 360.139C88.0449 357.092 92.1116 356.114 94.5802 355.226C98.8053 353.655 103.412 353.496 107.732 354.772C111.535 356.001 115.162 357.736 118.519 359.931Z" fill="#FBBEBE"/>
<path d="M99.7637 491.584C99.9222 491.899 100.164 492.163 100.462 492.346C100.8 492.486 101.167 492.541 101.53 492.503C107.005 492.386 112.479 492.268 117.952 492.148C119.972 492.048 121.996 492.123 124.003 492.371C125.6 492.617 127.165 493.09 128.777 493.188C132.515 493.427 136.065 491.682 139.418 489.982C139.95 489.778 140.406 489.409 140.72 488.927C140.93 488.404 140.939 487.819 140.746 487.289C140.45 486.205 139.807 485.253 138.918 484.585C138.81 484.512 138.699 484.438 138.584 484.372C137.662 483.928 136.666 483.664 135.648 483.596C131.835 483.086 127.824 482.324 124.931 479.741C124.097 478.997 123.388 478.125 122.615 477.319C120.981 475.707 119.219 474.235 117.348 472.918C117.166 472.741 116.95 472.603 116.714 472.513C116.477 472.423 116.226 472.382 115.974 472.394C115.69 472.477 115.431 472.629 115.218 472.837C114.431 473.405 113.815 474.184 113.438 475.087C113.264 475.543 113.258 476.047 113.42 476.508C113.582 476.968 113.901 477.353 114.319 477.594C114.959 477.868 115.654 477.726 116.233 478.103C115.049 478.975 113.222 479.411 111.891 480.312C110.576 481.34 109.101 482.135 107.527 482.665C105.926 483.086 104.019 482.797 102.973 481.492C102.408 480.789 101.692 479.712 100.926 480.173C100.665 480.371 100.478 480.652 100.393 480.972C99.5979 482.865 99.0733 484.864 98.8356 486.908C98.6496 488.527 98.9747 490.165 99.7637 491.584Z" fill="#2F2E41"/>
<path d="M104.189 316.509C105.137 316.488 106.084 316.595 107.004 316.827C107.884 317.12 108.727 317.514 109.519 318.002L118.51 323.08C119.171 323.416 119.786 323.838 120.34 324.336C121.636 325.606 122.01 327.561 122.087 329.391C122.389 336.516 119.232 343.351 118.835 350.472C118.66 353.649 119.036 356.832 119.947 359.875C120.173 360.628 120.395 361.553 119.853 362.115C119.648 362.303 119.406 362.444 119.144 362.53C116.297 363.659 113.199 363.909 110.152 364.146C102.698 364.728 95.1779 365.308 87.7686 364.293C87.3971 364.267 87.0353 364.161 86.7073 363.982C86.2838 363.642 85.9706 363.181 85.8085 362.657C84.8733 360.424 83.9557 358.183 83.0555 355.934C81.5453 352.161 80.0577 348.189 80.439 344.133C80.9126 339.095 84.1601 334.84 86.0537 330.161C86.619 328.764 87.0681 327.314 87.7542 325.974C88.5241 324.609 89.3816 323.298 90.3211 322.048C91.0495 320.992 91.7507 318.618 92.6399 317.877C93.7272 316.972 96.7962 316.993 98.1727 316.829C100.169 316.591 102.179 316.484 104.189 316.509Z" fill="#2F2E41"/>
<path opacity="0.1" d="M51.3892 449.159C53.7563 453.436 56.1222 457.711 58.4869 461.984C59.0373 462.974 59.5877 463.97 60.041 465.011C60.8109 466.77 61.3001 468.649 62.1671 470.361C63.188 472.19 64.4186 473.89 65.8329 475.425C67.3762 477.238 68.9194 479.05 70.4627 480.859C70.9489 481.511 71.5549 482.061 72.247 482.478C72.5961 482.68 72.9942 482.778 73.3953 482.759C73.7964 482.74 74.1841 482.606 74.5134 482.372C74.768 482.142 74.9705 481.858 75.107 481.54C75.4667 480.768 75.63 479.916 75.5819 479.063C73.8941 478.224 72.3703 477.08 71.0851 475.685C70.0763 474.449 69.1995 473.108 68.4698 471.683C67.833 470.544 67.1951 469.403 66.5559 468.261C63.2787 462.387 59.999 456.514 56.717 450.64C55.3585 448.347 54.4655 445.801 54.0908 443.15C53.3678 443.52 52.6591 443.916 51.9612 444.308C51.5759 444.495 51.2273 444.752 50.9323 445.067C50.0006 446.184 50.6805 447.881 51.3892 449.159Z" fill="black"/>
<path d="M81.5075 256.099C87.4556 257.129 93.4704 257.708 99.5026 257.833C100.989 257.864 102.787 257.683 103.445 256.326C103.752 255.691 103.733 254.901 104.164 254.345C104.974 253.3 106.601 253.816 107.766 254.42C109.393 255.263 111.099 256.177 112.072 257.751C112.709 258.972 113.122 260.302 113.288 261.674C113.852 264.598 114.717 267.657 116.895 269.646C118.026 270.678 119.445 271.353 120.533 272.433C122.288 274.177 122.972 276.793 122.977 279.291C122.982 281.789 122.39 284.242 121.951 286.699C120.34 295.783 120.806 305.123 123.313 313.993C123.434 314.306 123.468 314.647 123.411 314.978C123.236 315.616 122.476 315.843 121.834 315.95C111.87 317.623 101.18 316.036 92.0112 320.346C91.2478 318.428 89.3571 317.337 88.4227 315.499C87.6655 314.009 87.7709 312.241 87.5699 310.576C87.0259 306.071 84.2035 302.235 82.6023 297.999C81.1983 294.285 80.711 290.193 78.7451 286.754C78.0469 285.532 77.1752 284.42 76.4936 283.188C74.8398 279.801 73.6717 276.189 73.0248 272.464C72.6281 267.643 74.8379 262.999 77.4429 258.954C78.447 257.395 79.7028 255.786 81.5075 256.099Z" fill="#D0CDE1"/>
<path opacity="0.1" d="M110.361 273.311C111.498 273.571 112.165 274.741 112.695 275.798C113.052 276.463 113.352 277.157 113.592 277.874C113.903 279.084 114.029 280.337 113.965 281.586C113.99 282.38 113.907 283.172 113.717 283.942C113.522 284.719 113.04 285.388 112.371 285.81" stroke="black" stroke-miterlimit="10"/>
<path d="M79.3243 379.458L78.1452 376.666C74.0105 366.636 71.2473 360.089 73.6847 354.683C74.1307 353.646 74.7765 352.711 75.5836 351.933C76.3908 351.155 77.343 350.55 78.384 350.153C79.4249 349.757 80.5333 349.577 81.6436 349.625C82.7539 349.672 83.8436 349.946 84.8481 350.431C86.037 350.994 87.0911 351.815 87.9372 352.836C88.7834 353.856 89.4013 355.052 89.7481 356.341C90.9335 355.769 92.2268 355.467 93.5382 355.456C94.8496 355.445 96.1477 355.724 97.3424 356.275C98.3575 356.736 99.2716 357.399 100.031 358.226C100.79 359.053 101.378 360.027 101.761 361.089C102.144 362.152 102.314 363.282 102.26 364.413C102.207 365.543 101.931 366.651 101.45 367.672C99.0122 373.077 92.3356 375.209 82.1716 378.55L79.3243 379.458Z" fill="#F9A826"/>
<path d="M94.7918 234.01C102.107 232.106 107.288 227.581 106.366 223.904C105.443 220.226 98.7651 218.789 91.4504 220.693C84.1356 222.597 78.9538 227.122 79.8765 230.799C80.7992 234.477 87.477 235.914 94.7918 234.01Z" fill="#2F2E41"/>
<path d="M86.9217 276.979C86.5841 273.49 85.4081 270.139 83.4976 267.222C82.7522 265.949 81.69 264.898 80.4185 264.177C79.778 263.829 79.053 263.674 78.329 263.731C77.605 263.789 76.9122 264.056 76.3324 264.501C75.609 265.274 75.102 266.231 74.864 267.271C73.1599 271.736 72.423 276.523 72.7036 281.306C72.7305 285.666 72.7639 290.08 73.8459 294.299C74.4594 296.691 75.4042 298.993 75.8732 301.419C76.3423 303.845 76.2853 306.506 75.0084 308.608C73.9766 310.237 73.2045 312.023 72.7209 313.898C72.2874 316.154 72.1501 318.458 72.3127 320.751L72.4861 327.049C72.7122 335.263 72.9315 343.563 71.3187 351.615C70.5828 355.289 68.7356 358.764 69.1582 362.489C69.3671 363.837 69.7458 365.152 70.285 366.402C70.9764 368.2 71.8117 370.142 73.5039 371.013C74.3269 371.39 75.2181 371.588 76.1204 371.594C77.2399 371.651 78.3622 371.601 79.4725 371.444C80.1523 371.348 81.0307 370.885 80.7999 370.226C80.6925 370.004 80.5265 369.815 80.3204 369.683C79.4526 368.972 78.7517 368.073 78.2689 367.05C77.7862 366.028 77.5337 364.909 77.53 363.775C77.5434 360.515 79.6249 357.38 78.9756 354.188C78.5732 352.21 77.1404 350.293 77.7445 348.368C79.1081 344.024 79.2737 339.357 80.4355 334.953L81.5742 330.636C82.2516 328.068 82.9293 325.499 83.4871 322.901C85.0302 315.709 85.6465 308.343 85.3204 300.988C85.2694 299.842 85.8958 298.535 85.9897 297.391C86.1006 296.043 85.9663 294.686 85.9856 293.333C86.0649 287.762 87.4514 282.525 86.9217 276.979Z" fill="#FBBEBE"/>
<path d="M304.934 422.622C307.384 422.622 309.371 420.598 309.371 418.102C309.371 415.606 307.384 413.582 304.934 413.582C302.483 413.582 300.496 415.606 300.496 418.102C300.496 420.598 302.483 422.622 304.934 422.622Z" fill="#FF6584"/>
<path d="M392.887 492.287H578.244" stroke="#3F3D56" stroke-width="2" stroke-miterlimit="10"/>
<path d="M282.217 492.287H369.803" stroke="#3F3D56" stroke-width="2" stroke-miterlimit="10"/>
<path d="M326.673 493.118V441.657" stroke="#3F3D56" stroke-width="2" stroke-miterlimit="10"/>
<path d="M326.673 448.935C330.619 448.935 333.818 445.676 333.818 441.657C333.818 437.638 330.619 434.38 326.673 434.38C322.727 434.38 319.529 437.638 319.529 441.657C319.529 445.676 322.727 448.935 326.673 448.935Z" fill="#3F3D56"/>
<path d="M326.673 473.374C326.673 473.374 325.652 451.014 304.729 453.613L326.673 473.374Z" fill="#3F3D56"/>
<path d="M497.734 425.294C479.212 454.225 484.287 491.022 484.287 491.022C484.287 491.022 519.392 480.912 537.913 451.981C556.435 423.049 551.36 386.252 551.36 386.252C551.36 386.252 516.255 396.362 497.734 425.294Z" fill="#3F3D56"/>
<path d="M484.188 490.686C484.188 490.686 483.737 490.613 482.907 490.442C482.245 490.305 481.334 490.109 480.221 489.841C470.273 487.452 443.824 479.375 426.531 458.142C404.888 431.553 405.8 394.406 405.8 394.406C405.8 394.406 438.892 399.883 460.699 423.76C461.643 424.786 462.563 425.85 463.457 426.95C482.289 450.085 484.044 481.212 484.183 488.908C484.203 490.061 484.188 490.686 484.188 490.686Z" fill="#F9A826"/>
<path d="M470.84 425.294C489.362 454.225 484.287 491.022 484.287 491.022C484.287 491.022 449.182 480.912 430.66 451.981C412.138 423.049 417.213 386.252 417.213 386.252C417.213 386.252 452.318 396.362 470.84 425.294Z" stroke="#3F3D56" stroke-width="2" stroke-miterlimit="10"/>
<path opacity="0.1" d="M484.184 488.907C483.694 489.508 483.263 490.021 482.908 490.442C482.121 491.355 481.675 491.834 481.675 491.834C481.675 491.834 481.133 491.14 480.221 489.841C475.218 482.737 459.125 457.477 460.368 428.299C460.435 426.77 460.545 425.257 460.699 423.76C461.644 424.786 462.563 425.849 463.457 426.95C482.289 450.085 484.044 481.212 484.184 488.907Z" fill="black"/>
<path d="M511.647 430.409C510.183 464.916 485.034 491.834 485.034 491.834C485.034 491.834 462.26 462.806 463.724 428.299C465.188 393.793 490.336 366.874 490.336 366.874C490.336 366.874 513.111 395.902 511.647 430.409Z" fill="#F9A826"/>
<path d="M485.034 490.857L490.563 368.281" stroke="#3F3D56" stroke-width="2" stroke-miterlimit="10"/>
</g>
<defs>
<clipPath id="clip0">
<rect width="614" height="494" fill="white"/>
</clipPath>
</defs>
</svg>
